<svg width="80" height="80" viewBox="0 0 80 80" fill="none" xmlns="http://www.w3.org/2000/svg">
<path fill-rule="evenodd" clip-rule="evenodd" d="M32.7821 44.0986H32.4554V29.5953C32.4554 28.9231 31.8723 28.3762 31.1557 28.3762L31.1106 18.8642C31.1106 17.9093 30.6069 17.0204 29.7603 16.4871C28.9155 15.9554 27.8505 15.8521 26.9046 16.2111L24.641 17.0746C23.02 17.6943 21.9712 19.1554 21.9712 20.7978V28.3762H21.9261C21.2095 28.3762 20.6264 28.9231 20.6264 29.5953V44.0986H20.2997C19.5831 44.0986 19 44.6455 19 45.3177V62.7806C19 63.4528 19.5831 63.9997 20.2997 63.9997H32.7821C33.4987 63.9997 34.0818 63.4528 34.0818 62.7806V45.3177C34.0818 44.6455 33.4987 44.0986 32.7821 44.0986ZM21.5994 61.5633H31.4824V46.5367H21.5994V61.5633ZM29.8542 44.0986H23.2258V30.8143H29.8542V44.0986ZM28.309 18.5087C28.4408 18.5933 28.5112 18.7152 28.5112 18.8625V28.3745H24.5706V20.7978C24.5706 20.151 24.9822 19.5753 25.623 19.3315L27.8848 18.468C28.0292 18.4122 28.1772 18.4274 28.309 18.5087ZM52.8411 39.8983C53.0325 40.4198 53.4007 40.8532 53.8917 41.114C57.7475 43.1593 60.1429 47.0044 60.1429 51.1492C60.1429 55.4853 57.511 59.476 53.4007 61.4298V62.781C53.4007 63.4531 52.8177 64 52.101 64H43.5899C42.8733 64 42.2902 63.4531 42.2902 62.781V61.4163C38.485 59.5809 35.8676 55.9119 35.5788 51.9602C35.252 47.4971 37.6204 43.3472 41.7631 41.1326C42.2685 40.8617 42.6494 40.4215 42.8462 39.8966C42.3516 39.7239 41.9978 39.2769 41.9978 38.7538V26.3008C41.9978 24.6906 43.3931 23.3818 45.1116 23.3818H50.5793C52.2978 23.3818 53.6932 24.6906 53.6932 26.3008V38.7555C53.6932 39.2786 53.3375 39.7273 52.8411 39.8983ZM51.0938 37.5347H44.5972V26.3008C44.5972 26.035 44.8282 25.8199 45.1116 25.8199H50.5793C50.8627 25.8199 51.0938 26.035 51.0938 26.3008V37.5347ZM50.8014 60.6493C50.8014 60.16 51.1118 59.7215 51.592 59.5268L51.5956 59.5251C55.2077 58.0995 57.5417 54.8114 57.5417 51.1492C57.5417 47.8797 55.6517 44.8473 52.6101 43.2355C51.3303 42.5565 50.4548 41.3629 50.1858 39.9728H49.1443V53.0878C49.1443 53.76 48.5612 54.3069 47.8446 54.3069C47.1279 54.3069 46.5449 53.76 46.5449 53.0878V39.9728H45.5033C45.2308 41.3612 44.3444 42.5599 43.0502 43.2507C39.7829 44.9963 37.9146 48.2708 38.1709 51.7926C38.4182 55.1433 40.745 58.1773 44.1007 59.5217C44.5791 59.713 44.8896 60.1515 44.8896 60.6425V61.5602H50.8014V60.6493Z" fill="white"/>
</svg>
