<svg width="80" height="80" viewBox="0 0 80 80" fill="none" xmlns="http://www.w3.org/2000/svg">
<path fill-rule="evenodd" clip-rule="evenodd" d="M64 40C64 26.7452 53.2548 16 40 16C26.7452 16 16 26.7452 16 40C16 53.2548 26.7452 64 40 64C53.2548 64 64 53.2548 64 40ZM39.1566 61.5828L30.9452 56.9817L27.112 57.3348L27.4538 57.5843C30.5979 59.8318 34.2651 61.186 38.1192 61.5188L39.1566 61.5828ZM50.1109 56.2377L53.104 57.1703L52.217 57.815C49.487 59.6911 46.3673 60.9129 43.076 61.3822L42.6537 61.4354L50.1109 56.2377ZM49.0789 46.1166L40.4903 42.6229L31.8811 47.4194V55.1406L40.8606 60.1703L49.0791 54.6185L49.0789 46.1166ZM55.7577 39.4L61.5829 40.8126L61.5227 41.8348C61.0925 46.938 58.8711 51.6949 55.233 55.3133L54.9554 55.5794L51.1463 54.3966L51.1463 45.6079L55.7577 39.4ZM29.9585 46.3815L23.7451 41.8823L19.2846 46.144L19.4166 46.5662C20.3822 49.5958 22.0112 52.374 24.1785 54.7047L24.9177 55.4629L29.8171 55.0069L29.9585 46.3815ZM33.3966 26.6869L40.6087 31.7987L39.6235 40.9148L31.7543 45.1291L24.5497 39.9098L25.5968 30.2112L33.3966 26.6869ZM54.1497 38.104L50.2514 30.5474L42.4926 32.0149L41.7006 40.8811L49.7303 44.1451L54.1497 38.104ZM22.096 27.9109L23.6457 29.8776L22.6135 40.2271L18.7376 43.8223C18.5133 42.5664 18.4004 41.2888 18.4004 40C18.4004 35.8023 19.601 31.7535 21.8634 28.2646L22.096 27.9109ZM54.4666 23.9603L53.7246 23.32L52.1798 29.773L55.9346 37.3148L61.5589 38.68L61.5338 38.3021C61.1033 32.7705 58.5658 27.658 54.4666 23.9603ZM41.0281 18.4245C44.7853 18.6008 48.395 19.7423 51.5571 21.7491L51.9177 21.9794L50.4537 28.4046L41.5831 30.0839L34.7029 25.0823L35.5985 18.8492C37.0397 18.5509 38.5122 18.4004 40 18.4004L41.0281 18.4245ZM32.634 24.9373L33.4274 19.4149L33.0328 19.5487C29.2708 20.83 25.9266 23.138 23.3773 26.2067L25.0788 28.3566L32.634 24.9373Z" fill="white"/>
</svg>
