<svg width="80" height="80" viewBox="0 0 80 80" fill="none" xmlns="http://www.w3.org/2000/svg">
<path fill-rule="evenodd" clip-rule="evenodd" d="M62.0118 23.3432C61.6762 21.9359 60.4629 21 58.9821 21H20.9986L20.7979 21.005C20.4688 21.0218 20.1666 21.0811 19.8807 21.1901C18.6709 21.6353 17.9009 22.755 17.9009 24.0778L17.9016 38.1063C17.9031 38.1646 17.9076 38.2025 17.9198 38.2499L17.9235 38.2728C17.9248 38.3038 17.9108 38.3395 17.8685 38.4178L17.4901 39.1203C17.3081 39.4611 17.208 39.6682 17.1062 39.9192L16.9966 40.1935C16.4662 41.5727 16.1966 43.0717 16.0628 45.004L16.0553 45.0901L16 45.8529L16.0002 51.9749L16.0061 58.7073H16.1919L16.2986 58.7134L22.7326 58.7143L23.0421 58.682L23.0395 56.316L23.0421 54.8252C23.0421 54.6136 23.0601 54.404 23.0956 54.2012C23.1884 53.6444 23.4853 53.3091 24.0149 53.2012C24.2786 53.1451 24.5577 53.1187 24.8579 53.1187H55.1417L55.3116 53.1204C55.4739 53.1237 55.615 53.1324 55.7482 53.1482C56.3326 53.2206 56.6958 53.4739 56.8407 53.9486C56.9131 54.1791 56.9511 54.4101 56.9511 54.6273C56.9526 54.7716 56.9539 54.9105 56.9549 55.0501L56.9574 58.7012H63.9937L63.9925 51.5645L64 47.5824C64 45.5106 63.9126 44.0566 63.6516 42.6149C63.3609 41.0197 62.9321 39.755 62.2382 38.6352C62.1321 38.4585 62.0861 38.2912 62.0861 38.0769C62.0926 35.6365 62.096 33.1325 62.0964 30.4939L62.0924 24.0591C62.0924 23.8189 62.0647 23.5702 62.0118 23.3432ZM18.285 48.4523H61.7198L61.7198 51.8173L61.7138 56.4366H59.2305L59.2291 55.1893C59.2276 54.9907 59.2245 54.8136 59.2192 54.6463L59.2055 54.3214C59.1557 53.3523 58.8532 52.5561 58.2411 51.9197C57.7523 51.4156 57.1324 51.103 56.3975 50.9684C55.9632 50.8941 55.551 50.8548 55.1605 50.8548L24.8453 50.8486C24.0229 50.8486 23.3694 50.9536 22.7705 51.2208C21.7622 51.667 21.1358 52.461 20.9048 53.5525C20.827 53.9173 20.7949 54.2644 20.7689 54.852L20.763 54.9985C20.7564 55.1963 20.7546 55.4068 20.7561 55.6645L20.7624 56.4429H18.285V48.4523ZM39.7048 34.4595C38.0235 34.4595 36.3787 34.4978 34.7687 34.5761C33.2723 34.6488 31.7519 34.7702 30.2235 34.938C29.2983 35.0387 28.3906 35.1917 27.0381 35.4583C25.6194 35.735 24.3413 36.1364 23.1653 36.6922C21.8487 37.3178 20.8255 38.1175 20.0805 39.1529C19.3273 40.1974 18.8665 41.4153 18.6239 42.8826L18.5786 43.1831L18.5332 43.5324C18.5052 43.7649 18.4809 44.0066 18.4537 44.317L18.3468 45.621C18.3348 45.717 18.3302 45.8016 18.3302 45.9347L18.3333 46.1817H61.6863L61.6083 44.8336C61.5924 44.5836 61.578 44.3869 61.5606 44.1807L61.5516 44.0765C61.4549 42.9648 61.2354 41.9272 60.8791 40.9496C60.2819 39.314 59.2228 38.049 57.6978 37.1453C56.6879 36.545 55.5587 36.1065 54.1666 35.7383C52.5132 35.2939 50.7499 35.0065 48.6869 34.8153C47.3445 34.6904 46.0999 34.604 44.9132 34.5577C43.0804 34.4929 41.3618 34.4595 39.7048 34.4595ZM21.0049 23.2516H58.9884L59.091 23.2555C59.5557 23.2915 59.8189 23.5768 59.8189 24.0409L59.8184 35.8816L59.7167 35.8042C58.9812 35.2589 58.1868 34.7985 57.3405 34.4299C57.3274 34.4239 57.3227 34.4241 57.3213 34.4242L57.321 34.4242L57.3232 34.4126L57.3236 31.1783L57.3295 30.6962C57.3428 29.9597 57.0276 29.381 56.4082 28.9346C55.8965 28.57 55.3123 28.3372 54.5017 28.1311C53.5719 27.8976 52.587 27.7507 51.4166 27.6528C50.0564 27.5352 48.6409 27.5061 46.9176 27.5415C45.1586 27.577 43.7155 27.7058 42.3429 27.9815C41.3707 28.1752 40.7476 28.3649 40.1566 28.6958C40.0262 28.7663 39.9667 28.7669 39.8447 28.6968L39.6853 28.6113C39.0967 28.3089 38.4526 28.1262 37.5099 27.9503C35.667 27.6014 33.7494 27.4915 31.2804 27.5354C30.2552 27.5539 29.235 27.6031 28.2136 27.6834C26.7978 27.799 25.6609 28.0121 24.6136 28.4012C23.9664 28.6398 23.4884 28.9316 23.1249 29.3589C22.8232 29.7164 22.67 30.1252 22.67 30.5824L22.6705 34.4174L22.3158 34.5797C21.5909 34.9256 20.8992 35.3448 20.2247 35.845L20.1864 35.8731L20.1869 24.0409L20.191 23.9462C20.2291 23.5158 20.5303 23.2516 21.0049 23.2516ZM46.2892 29.8178L45.5955 29.8543L44.9502 29.9017C44.0258 29.978 43.2856 30.0794 42.568 30.2375C41.9775 30.3711 41.5707 30.5052 41.2003 30.7096C41.1618 30.7318 41.1504 30.7402 41.1472 30.7617L41.1514 31.4947L41.1481 32.1951L41.4442 32.1955C43.3748 32.2076 45.1239 32.2661 46.7903 32.3826L47.3428 32.4235L47.9526 32.474C48.7755 32.5467 49.6478 32.6418 50.6888 32.7686C51.8079 32.903 52.9088 33.1011 53.9911 33.3655L54.7111 33.5509L55.0622 33.6453L55.0626 31.5199C55.0638 31.285 55.0658 31.0665 55.0686 30.8529C55.0686 30.7523 55.0495 30.7212 54.9606 30.6777C54.5567 30.4746 54.1213 30.34 53.5057 30.2076C52.4127 29.9836 51.2646 29.8688 49.8009 29.8114C48.8532 29.7743 47.9155 29.768 46.9854 29.7931L46.2892 29.8178ZM28.7545 29.9017L29.4002 29.8542C30.7454 29.766 32.1348 29.7538 33.6047 29.8115C35.0188 29.8692 36.1155 29.9762 37.1666 30.1833C37.8403 30.3153 38.3215 30.459 38.7639 30.6835C38.8615 30.7313 38.8756 30.7526 38.8726 30.8396L38.867 31.0171C38.864 31.1343 38.8625 31.2532 38.8622 31.3993L38.8656 32.2067L38.0982 32.2027L37.7794 32.2079L34.6086 32.3131L33.8222 32.3495C32.7442 32.4067 31.7032 32.4883 30.6936 32.5962L30.2172 32.6474C28.3343 32.8586 26.7196 33.1477 25.2079 33.5701L24.9492 33.6445L24.9499 30.7515C24.9506 30.7384 24.9545 30.7362 24.973 30.7255C24.9752 30.7242 24.9777 30.7227 24.9805 30.7211L25.1049 30.6528C25.4419 30.4778 25.8248 30.3582 26.3709 30.2378C27.0893 30.0794 27.8296 29.978 28.7545 29.9017Z" fill="white"/>
<path d="M62.0118 23.3432L62.1091 23.3205L62.109 23.32L62.0118 23.3432ZM20.9986 21V20.9L20.9961 20.9L20.9986 21ZM20.7979 21.005L20.7954 20.905L20.7928 20.9051L20.7979 21.005ZM19.8807 21.1901L19.9152 21.2839L19.9163 21.2835L19.8807 21.1901ZM17.9009 24.0778H17.8009V24.0778L17.9009 24.0778ZM17.9016 38.1063L17.8016 38.1063L17.8016 38.1089L17.9016 38.1063ZM17.9198 38.2499L18.0188 38.2338L18.0166 38.2252L17.9198 38.2499ZM17.9235 38.2728L18.0241 38.2684L18.0222 38.2568L17.9235 38.2728ZM17.8685 38.4178L17.7805 38.3703L17.7804 38.3704L17.8685 38.4178ZM17.4901 39.1203L17.4021 39.0728L17.4019 39.0732L17.4901 39.1203ZM17.1062 39.9192L17.0135 39.8816L17.0133 39.8821L17.1062 39.9192ZM16.9966 40.1935L16.9037 40.1564L16.9033 40.1576L16.9966 40.1935ZM16.0628 45.004L16.1624 45.0126L16.1625 45.0109L16.0628 45.004ZM16.0553 45.0901L15.9557 45.0814L15.9555 45.0829L16.0553 45.0901ZM16 45.8529L15.9 45.8457L15.9 45.8529L16 45.8529ZM16.0002 51.9749L15.9002 51.9749L15.9002 51.9749L16.0002 51.9749ZM16.0061 58.7073L15.9061 58.7074L15.9062 58.8073H16.0061V58.7073ZM16.1919 58.7073L16.1976 58.6073H16.1919V58.7073ZM16.2986 58.7134L16.2928 58.8134H16.2985L16.2986 58.7134ZM22.7326 58.7143L22.7326 58.8148L22.743 58.8137L22.7326 58.7143ZM23.0421 58.682L23.0525 58.7814L23.1422 58.772L23.1421 58.6818L23.0421 58.682ZM23.0395 56.316L22.9395 56.3159L22.9395 56.3162L23.0395 56.316ZM23.0421 54.8252L23.1421 54.8254V54.8252H23.0421ZM23.0956 54.2012L23.1941 54.2184L23.1942 54.2176L23.0956 54.2012ZM24.0149 53.2012L24.0349 53.2992L24.0358 53.299L24.0149 53.2012ZM55.1417 53.1187L55.1427 53.0187H55.1417V53.1187ZM55.3116 53.1204L55.3137 53.0204L55.3126 53.0204L55.3116 53.1204ZM55.7482 53.1482L55.7605 53.049L55.76 53.0489L55.7482 53.1482ZM56.8407 53.9486L56.7451 53.9778L56.7453 53.9786L56.8407 53.9486ZM56.9511 54.6273H56.8511L56.8512 54.6284L56.9511 54.6273ZM56.9549 55.0501L57.0549 55.0501L57.0549 55.0494L56.9549 55.0501ZM56.9574 58.7012L56.8574 58.7012L56.8575 58.8012H56.9574V58.7012ZM63.9937 58.7012V58.8012H64.0937L64.0937 58.7011L63.9937 58.7012ZM63.9925 51.5645L63.8925 51.5643V51.5645L63.9925 51.5645ZM64 47.5824L64.1 47.5826V47.5824H64ZM63.6516 42.6149L63.75 42.5971L63.75 42.5969L63.6516 42.6149ZM62.2382 38.6352L62.1524 38.6867L62.1532 38.6879L62.2382 38.6352ZM62.0861 38.0769L61.9861 38.0766V38.0769H62.0861ZM62.0964 30.4939L62.1964 30.4939V30.4938L62.0964 30.4939ZM62.0924 24.0591H61.9924V24.0592L62.0924 24.0591ZM61.7198 48.4523H61.8198V48.3523H61.7198V48.4523ZM18.285 48.4523V48.3523H18.185V48.4523H18.285ZM61.7198 51.8173L61.8198 51.8174V51.8173H61.7198ZM61.7138 56.4366V56.5366H61.8137L61.8138 56.4368L61.7138 56.4366ZM59.2305 56.4366L59.1305 56.4367L59.1306 56.5366H59.2305V56.4366ZM59.2291 55.1893L59.3291 55.1892L59.3291 55.1885L59.2291 55.1893ZM59.2192 54.6463L59.3192 54.6431L59.3191 54.6421L59.2192 54.6463ZM59.2055 54.3214L59.3054 54.3172L59.3054 54.3163L59.2055 54.3214ZM58.2411 51.9197L58.3131 51.8503L58.3129 51.85L58.2411 51.9197ZM56.3975 50.9684L56.4155 50.87L56.4143 50.8698L56.3975 50.9684ZM55.1605 50.8548L55.1605 50.9548H55.1605V50.8548ZM24.8453 50.8486L24.8453 50.7486H24.8453V50.8486ZM22.7705 51.2208L22.8109 51.3123L22.8112 51.3122L22.7705 51.2208ZM20.9048 53.5525L21.0026 53.5734L21.0027 53.5732L20.9048 53.5525ZM20.7689 54.852L20.669 54.8475L20.6689 54.848L20.7689 54.852ZM20.763 54.9985L20.6631 54.9945L20.663 54.9951L20.763 54.9985ZM20.7561 55.6645L20.6561 55.6651L20.6561 55.6653L20.7561 55.6645ZM20.7624 56.4429V56.5429H20.8632L20.8624 56.442L20.7624 56.4429ZM18.285 56.4429H18.185V56.5429H18.285V56.4429ZM34.7687 34.5761L34.7735 34.676H34.7735L34.7687 34.5761ZM30.2235 34.938L30.2344 35.0374L30.2345 35.0374L30.2235 34.938ZM27.0381 35.4583L27.0572 35.5565L27.0574 35.5564L27.0381 35.4583ZM23.1653 36.6922L23.1225 36.6018L23.1224 36.6019L23.1653 36.6922ZM20.0805 39.1529L20.1616 39.2114L20.1616 39.2113L20.0805 39.1529ZM18.6239 42.8826L18.5252 42.8663L18.525 42.8677L18.6239 42.8826ZM18.5786 43.1831L18.4797 43.1682L18.4794 43.1702L18.5786 43.1831ZM18.5332 43.5324L18.434 43.5195L18.4339 43.5205L18.5332 43.5324ZM18.4537 44.317L18.3541 44.3082L18.354 44.3088L18.4537 44.317ZM18.3468 45.621L18.4461 45.6333L18.4464 45.6291L18.3468 45.621ZM18.3302 45.9347L18.2302 45.9347L18.2302 45.936L18.3302 45.9347ZM18.3333 46.1817L18.2333 46.1829L18.2346 46.2817H18.3333V46.1817ZM61.6863 46.1817V46.2817H61.7923L61.7861 46.1759L61.6863 46.1817ZM61.6083 44.8336L61.7081 44.8278L61.7081 44.8273L61.6083 44.8336ZM61.5606 44.1807L61.6602 44.1723L61.6602 44.1721L61.5606 44.1807ZM61.5516 44.0765L61.6512 44.0679L61.6512 44.0678L61.5516 44.0765ZM60.8791 40.9496L60.973 40.9154L60.973 40.9154L60.8791 40.9496ZM57.6978 37.1453L57.6467 37.2313L57.6468 37.2314L57.6978 37.1453ZM54.1666 35.7383L54.1407 35.8349L54.1411 35.835L54.1666 35.7383ZM48.6869 34.8153L48.6776 34.9149L48.6777 34.9149L48.6869 34.8153ZM44.9132 34.5577L44.9171 34.4578L44.9167 34.4578L44.9132 34.5577ZM58.9884 23.2516L58.9921 23.1516H58.9884V23.2516ZM59.091 23.2555L59.0987 23.1557L59.0948 23.1556L59.091 23.2555ZM59.8189 24.0409L59.9189 24.0409V24.0409H59.8189ZM59.8184 35.8816L59.7578 35.9612L59.9184 36.0836L59.9184 35.8817L59.8184 35.8816ZM59.7167 35.8042L59.7773 35.7246L59.7762 35.7238L59.7167 35.8042ZM57.3405 34.4299L57.2989 34.5209L57.3006 34.5216L57.3405 34.4299ZM57.3213 34.4242L57.3226 34.5242L57.3249 34.5241L57.3213 34.4242ZM57.321 34.4242L57.2228 34.4054L57.1999 34.5257L57.3223 34.5242L57.321 34.4242ZM57.3232 34.4126L57.4215 34.4314L57.4232 34.4221V34.4127L57.3232 34.4126ZM57.3236 31.1783L57.2236 31.1771V31.1783L57.3236 31.1783ZM57.3295 30.6962L57.2295 30.6944L57.2295 30.695L57.3295 30.6962ZM56.4082 28.9346L56.4667 28.8535L56.4663 28.8531L56.4082 28.9346ZM54.5017 28.1311L54.5264 28.0342L54.5261 28.0341L54.5017 28.1311ZM51.4166 27.6528L51.4079 27.7524L51.4082 27.7524L51.4166 27.6528ZM46.9176 27.5415L46.9196 27.6415L46.9196 27.6415L46.9176 27.5415ZM42.3429 27.9815L42.3625 28.0796L42.3626 28.0795L42.3429 27.9815ZM40.1566 28.6958L40.2042 28.7838L40.2055 28.783L40.1566 28.6958ZM39.8447 28.6968L39.8945 28.61L39.8919 28.6087L39.8447 28.6968ZM39.6853 28.6113L39.7326 28.5231L39.731 28.5223L39.6853 28.6113ZM37.5099 27.9503L37.4913 28.0485L37.4915 28.0486L37.5099 27.9503ZM31.2804 27.5354L31.2787 27.4354L31.2786 27.4354L31.2804 27.5354ZM28.2136 27.6834L28.2058 27.5838L28.2055 27.5838L28.2136 27.6834ZM24.6136 28.4012L24.6482 28.495L24.6484 28.4949L24.6136 28.4012ZM23.1249 29.3589L23.0487 29.2942L23.0485 29.2944L23.1249 29.3589ZM22.67 30.5824H22.57V30.5824L22.67 30.5824ZM22.6705 34.4174L22.7121 34.5084L22.7705 34.4816L22.7705 34.4174L22.6705 34.4174ZM22.3158 34.5797L22.2742 34.4888L22.2727 34.4895L22.3158 34.5797ZM20.2247 35.845L20.2838 35.9256L20.2843 35.9253L20.2247 35.845ZM20.1864 35.8731L20.0864 35.8731L20.0864 36.0704L20.2455 35.9538L20.1864 35.8731ZM20.1869 24.0409L20.0869 24.0366V24.0409L20.1869 24.0409ZM20.191 23.9462L20.0913 23.9374L20.0911 23.9419L20.191 23.9462ZM45.5955 29.8543L45.5903 29.7544L45.5882 29.7546L45.5955 29.8543ZM46.2892 29.8178L46.2856 29.7179L46.2839 29.7179L46.2892 29.8178ZM44.9502 29.9017L44.9429 29.802L44.942 29.8021L44.9502 29.9017ZM42.568 30.2375L42.5465 30.1399L42.546 30.14L42.568 30.2375ZM41.2003 30.7096L41.152 30.622L41.1504 30.623L41.2003 30.7096ZM41.1472 30.7617L41.0483 30.7468L41.0471 30.7545L41.0472 30.7623L41.1472 30.7617ZM41.1514 31.4947L41.2514 31.4952L41.2514 31.4942L41.1514 31.4947ZM41.1481 32.1951L41.0481 32.1946L41.0476 32.2949L41.1479 32.2951L41.1481 32.1951ZM41.4442 32.1955L41.4448 32.0955H41.4443L41.4442 32.1955ZM46.7903 32.3826L46.7977 32.2828L46.7973 32.2828L46.7903 32.3826ZM47.3428 32.4235L47.3511 32.3239L47.3502 32.3238L47.3428 32.4235ZM47.9526 32.474L47.9614 32.3744L47.9609 32.3744L47.9526 32.474ZM50.6888 32.7686L50.6767 32.8678L50.6768 32.8679L50.6888 32.7686ZM53.9911 33.3655L54.0161 33.2687L54.0149 33.2684L53.9911 33.3655ZM54.7111 33.5509L54.737 33.4543L54.736 33.4541L54.7111 33.5509ZM55.0622 33.6453L55.0363 33.7418L55.1622 33.7757L55.1622 33.6453L55.0622 33.6453ZM55.0626 31.5199L54.9626 31.5193V31.5199L55.0626 31.5199ZM55.0686 30.8529L55.1686 30.8543V30.8529H55.0686ZM54.9606 30.6777L54.9157 30.767L54.9166 30.7675L54.9606 30.6777ZM53.5057 30.2076L53.5268 30.1098L53.5258 30.1096L53.5057 30.2076ZM49.8009 29.8114L49.8048 29.7115L49.8009 29.8114ZM46.9854 29.7931L46.9827 29.6931L46.9818 29.6932L46.9854 29.7931ZM29.4002 29.8542L29.3936 29.7545L29.3928 29.7545L29.4002 29.8542ZM28.7545 29.9017L28.7471 29.802L28.7463 29.8021L28.7545 29.9017ZM33.6047 29.8115L33.6088 29.7115L33.6086 29.7115L33.6047 29.8115ZM37.1666 30.1833L37.1473 30.2814L37.1474 30.2814L37.1666 30.1833ZM38.7639 30.6835L38.7186 30.7727L38.7198 30.7733L38.7639 30.6835ZM38.8726 30.8396L38.7726 30.8361L38.7726 30.8365L38.8726 30.8396ZM38.867 31.0171L38.767 31.014L38.767 31.0146L38.867 31.0171ZM38.8622 31.3993L38.7622 31.3991L38.7622 31.3998L38.8622 31.3993ZM38.8656 32.2067L38.8651 32.3067L38.9661 32.3073L38.9656 32.2063L38.8656 32.2067ZM38.0982 32.2027L38.0987 32.1026L38.0966 32.1027L38.0982 32.2027ZM37.7794 32.2079L37.7778 32.1079L37.7761 32.108L37.7794 32.2079ZM34.6086 32.3131L34.6053 32.2131L34.604 32.2132L34.6086 32.3131ZM33.8222 32.3495L33.8176 32.2496L33.8169 32.2496L33.8222 32.3495ZM30.6936 32.5962L30.683 32.4967L30.6829 32.4967L30.6936 32.5962ZM30.2172 32.6474L30.2065 32.548L30.2061 32.548L30.2172 32.6474ZM25.2079 33.5701L25.181 33.4738L25.1802 33.474L25.2079 33.5701ZM24.9492 33.6445L24.8492 33.6445L24.8492 33.7773L24.9769 33.7406L24.9492 33.6445ZM24.9499 30.7515L24.8499 30.7458L24.8499 30.7515L24.9499 30.7515ZM24.973 30.7255L25.0231 30.812H25.0231L24.973 30.7255ZM24.9805 30.7211L24.9323 30.6334L24.9298 30.6349L24.9805 30.7211ZM25.1049 30.6528L25.0588 30.564L25.0568 30.5651L25.1049 30.6528ZM26.3709 30.2378L26.3494 30.1401L26.3709 30.2378ZM58.9821 21.1C60.4184 21.1 61.59 22.0059 61.9145 23.3664L62.109 23.32C61.7623 21.866 60.5075 20.9 58.9821 20.9V21.1ZM20.9986 21.1H58.9821V20.9H20.9986V21.1ZM20.8004 21.105L21.0011 21.1L20.9961 20.9L20.7954 20.905L20.8004 21.105ZM19.9163 21.2835C20.1913 21.1787 20.483 21.1212 20.803 21.1049L20.7928 20.9051C20.4546 20.9223 20.142 20.9835 19.8451 21.0966L19.9163 21.2835ZM18.0009 24.0778C18.0009 22.7956 18.746 21.7143 19.9152 21.2839L19.8461 21.0962C18.5959 21.5564 17.8009 22.7143 17.8009 24.0778H18.0009ZM18.0016 38.1063L18.0009 24.0778L17.8009 24.0778L17.8016 38.1063L18.0016 38.1063ZM18.0166 38.2252C18.0068 38.1866 18.0029 38.1565 18.0016 38.1037L17.8016 38.1089C17.8033 38.1728 17.8085 38.2183 17.8229 38.2746L18.0166 38.2252ZM18.0222 38.2568L18.0185 38.2339L17.821 38.2659L17.8248 38.2888L18.0222 38.2568ZM17.9565 38.4653C17.9959 38.3923 18.0262 38.3318 18.0234 38.2684L17.8236 38.2772C17.8234 38.2744 17.8246 38.2769 17.8189 38.2919C17.8128 38.308 17.8014 38.3316 17.7805 38.3703L17.9565 38.4653ZM17.5781 39.1677L17.9565 38.4652L17.7804 38.3704L17.4021 39.0728L17.5781 39.1677ZM17.1989 39.9568C17.2989 39.7102 17.3973 39.5064 17.5783 39.1674L17.4019 39.0732C17.219 39.4157 17.1172 39.6262 17.0135 39.8816L17.1989 39.9568ZM17.0895 40.2306L17.1991 39.9563L17.0133 39.8821L16.9037 40.1564L17.0895 40.2306ZM16.1625 45.0109C16.296 43.0841 16.5644 41.5959 17.0899 40.2294L16.9033 40.1576C16.368 41.5494 16.0972 43.0592 15.963 44.997L16.1625 45.0109ZM16.1549 45.0988L16.1624 45.0126L15.9632 44.9953L15.9557 45.0814L16.1549 45.0988ZM16.0997 45.8602L16.155 45.0973L15.9555 45.0829L15.9003 45.8457L16.0997 45.8602ZM16.1002 51.9749L16.1 45.8529L15.9 45.8529L15.9002 51.9749L16.1002 51.9749ZM16.1061 58.7072L16.1002 51.9748L15.9002 51.9749L15.9061 58.7074L16.1061 58.7072ZM16.1919 58.6073H16.0061V58.8073H16.1919V58.6073ZM16.3043 58.6136L16.1976 58.6075L16.1861 58.8071L16.2928 58.8133L16.3043 58.6136ZM22.7326 58.6143L16.2986 58.6134L16.2985 58.8134L22.7326 58.8143L22.7326 58.6143ZM23.0317 58.5825L22.7222 58.6148L22.743 58.8137L23.0525 58.7814L23.0317 58.5825ZM22.9395 56.3162L22.9421 58.6821L23.1421 58.6818L23.1395 56.3159L22.9395 56.3162ZM22.9421 54.825L22.9395 56.3159L23.1395 56.3162L23.1421 54.8254L22.9421 54.825ZM22.9971 54.184C22.9606 54.3927 22.9421 54.608 22.9421 54.8252H23.1421C23.1421 54.6193 23.1596 54.4154 23.1941 54.2184L22.9971 54.184ZM23.995 53.1032C23.7132 53.1606 23.4863 53.2803 23.3175 53.4655C23.1493 53.6502 23.0456 53.8927 22.9969 54.1848L23.1942 54.2176C23.2383 53.9529 23.3295 53.7494 23.4654 53.6002C23.6007 53.4517 23.787 53.3497 24.0349 53.2992L23.995 53.1032ZM24.8579 53.0187C24.5519 53.0187 24.2657 53.0456 23.9941 53.1034L24.0358 53.299C24.2916 53.2446 24.5636 53.2187 24.8579 53.2187V53.0187ZM55.1417 53.0187H24.8579V53.2187H55.1417V53.0187ZM55.3126 53.0204L55.1427 53.0188L55.1407 53.2187L55.3106 53.2204L55.3126 53.0204ZM55.76 53.0489C55.6228 53.0326 55.4783 53.0238 55.3137 53.0204L55.3095 53.2204C55.4695 53.2237 55.6072 53.2322 55.7364 53.2475L55.76 53.0489ZM56.9364 53.9195C56.8581 53.6631 56.7191 53.4621 56.5179 53.3165C56.3182 53.172 56.0637 53.0865 55.7605 53.049L55.7359 53.2475C56.0171 53.2823 56.2364 53.3596 56.4006 53.4785C56.5634 53.5963 56.6784 53.7594 56.7451 53.9778L56.9364 53.9195ZM57.0511 54.6273C57.0511 54.3986 57.0111 54.1575 56.9361 53.9187L56.7453 53.9786C56.815 54.2006 56.8512 54.4215 56.8512 54.6273H57.0511ZM57.0549 55.0494C57.0539 54.9097 57.0526 54.7707 57.0511 54.6263L56.8512 54.6284C56.8526 54.7726 56.8539 54.9114 56.8549 55.0509L57.0549 55.0494ZM57.0574 58.7011L57.0549 55.0501L56.8549 55.0502L56.8574 58.7012L57.0574 58.7011ZM63.9937 58.6012H56.9574V58.8012H63.9937V58.6012ZM63.8925 51.5645L63.8937 58.7012L64.0937 58.7011L64.0925 51.5645L63.8925 51.5645ZM63.9 47.5822L63.8925 51.5643L64.0925 51.5647L64.1 47.5826L63.9 47.5822ZM63.5532 42.6327C63.8127 44.066 63.9 45.5133 63.9 47.5824H64.1C64.1 45.5079 64.0125 44.0472 63.75 42.5971L63.5532 42.6327ZM62.1532 38.6879C62.8386 39.7939 63.264 41.0456 63.5532 42.6328L63.75 42.5969C63.4578 40.9937 63.0257 39.7161 62.3232 38.5825L62.1532 38.6879ZM61.9861 38.0769C61.9861 38.3088 62.0368 38.4939 62.1524 38.6867L62.3239 38.5837C62.2274 38.423 62.1861 38.2736 62.1861 38.0769H61.9861ZM61.9964 30.4939C61.996 33.1324 61.9926 35.6363 61.9861 38.0766L62.1861 38.0771C62.1926 35.6366 62.196 33.1326 62.1964 30.4939L61.9964 30.4939ZM61.9924 24.0592L61.9964 30.494L62.1964 30.4938L62.1924 24.059L61.9924 24.0592ZM61.9144 23.3659C61.9655 23.5851 61.9924 23.8262 61.9924 24.0591H62.1924C62.1924 23.8117 62.1639 23.5553 62.1091 23.3205L61.9144 23.3659ZM61.7198 48.3523H18.285V48.5523H61.7198V48.3523ZM61.8198 51.8173L61.8198 48.4523H61.6198L61.6198 51.8173H61.8198ZM61.8138 56.4368L61.8198 51.8174L61.6198 51.8172L61.6138 56.4365L61.8138 56.4368ZM59.2305 56.5366H61.7138V56.3366H59.2305V56.5366ZM59.1291 55.1894L59.1305 56.4367L59.3305 56.4365L59.3291 55.1892L59.1291 55.1894ZM59.1193 54.6495C59.1245 54.8157 59.1276 54.992 59.1291 55.19L59.3291 55.1885C59.3276 54.9894 59.3245 54.8114 59.3192 54.6431L59.1193 54.6495ZM59.1056 54.3256L59.1193 54.6505L59.3191 54.6421L59.3054 54.3172L59.1056 54.3256ZM58.169 51.989C58.7614 52.605 59.0568 53.3768 59.1056 54.3266L59.3054 54.3163C59.2546 53.3278 58.9449 52.5072 58.3131 51.8503L58.169 51.989ZM56.3795 51.0667C57.0963 51.198 57.6966 51.5018 58.1693 51.9893L58.3129 51.85C57.808 51.3294 57.1685 51.0079 56.4155 50.87L56.3795 51.0667ZM55.1605 50.9548C55.5444 50.9548 55.9508 50.9934 56.3806 51.0669L56.4143 50.8698C55.9755 50.7947 55.5577 50.7548 55.1605 50.7548V50.9548ZM24.8453 50.9486L55.1605 50.9548L55.1605 50.7548L24.8453 50.7486L24.8453 50.9486ZM22.8112 51.3122C23.3931 51.0525 24.0315 50.9486 24.8453 50.9486V50.7486C24.0143 50.7486 23.3456 50.8547 22.7297 51.1295L22.8112 51.3122ZM21.0027 53.5732C21.2272 52.5119 21.8332 51.7449 22.8109 51.3123L22.73 51.1294C21.6912 51.589 21.0444 52.4101 20.807 53.5318L21.0027 53.5732ZM20.8688 54.8564C20.8948 54.2705 20.9266 53.9299 21.0026 53.5734L20.807 53.5316C20.7275 53.9046 20.6951 54.2584 20.669 54.8475L20.8688 54.8564ZM20.8629 55.0025L20.8688 54.856L20.6689 54.848L20.6631 54.9945L20.8629 55.0025ZM20.8561 55.6639C20.8546 55.4069 20.8564 55.1978 20.8629 55.0018L20.663 54.9951C20.6564 55.1947 20.6546 55.4066 20.6561 55.6651L20.8561 55.6639ZM20.8624 56.442L20.8561 55.6637L20.6561 55.6653L20.6624 56.4437L20.8624 56.442ZM18.285 56.5429H20.7624V56.3429H18.285V56.5429ZM18.185 48.4523V56.4429H18.385V48.4523H18.185ZM34.7735 34.676C36.3819 34.5978 38.0251 34.5595 39.7048 34.5595V34.3595C38.022 34.3595 36.3756 34.3979 34.7638 34.4762L34.7735 34.676ZM30.2345 35.0374C31.7609 34.8698 33.2792 34.7486 34.7735 34.676L34.7638 34.4762C33.2653 34.549 31.7429 34.6706 30.2126 34.8386L30.2345 35.0374ZM27.0574 35.5564C28.4088 35.2901 29.3133 35.1377 30.2344 35.0374L30.2127 34.8386C29.2833 34.9397 28.3723 35.0934 27.0187 35.3602L27.0574 35.5564ZM23.208 36.7826C24.3754 36.2309 25.6454 35.8318 27.0572 35.5565L27.0189 35.3602C25.5934 35.6382 24.3073 36.0419 23.1225 36.6018L23.208 36.7826ZM20.1616 39.2113C20.8949 38.1922 21.9037 37.4024 23.2082 36.7825L23.1224 36.6019C21.7937 37.2332 20.756 38.0427 19.9993 39.0945L20.1616 39.2113ZM18.7226 42.899C18.9632 41.4433 19.4193 40.2408 20.1616 39.2114L19.9993 39.0944C19.2353 40.154 18.7697 41.3872 18.5253 42.8663L18.7226 42.899ZM18.6774 43.198L18.7228 42.8976L18.525 42.8677L18.4797 43.1682L18.6774 43.198ZM18.6323 43.5453L18.6777 43.196L18.4794 43.1702L18.434 43.5195L18.6323 43.5453ZM18.5533 44.3257C18.5805 44.016 18.6047 43.7754 18.6325 43.5443L18.4339 43.5205C18.4058 43.7543 18.3814 43.9972 18.3541 44.3082L18.5533 44.3257ZM18.4464 45.6291L18.5534 44.3251L18.354 44.3088L18.2471 45.6128L18.4464 45.6291ZM18.4302 45.9347C18.4302 45.8045 18.4347 45.7241 18.446 45.6333L18.2475 45.6086C18.2349 45.7098 18.2302 45.7988 18.2302 45.9347L18.4302 45.9347ZM18.4333 46.1804L18.4302 45.9335L18.2302 45.936L18.2333 46.1829L18.4333 46.1804ZM61.6863 46.0817H18.3333V46.2817H61.6863V46.0817ZM61.5084 44.8394L61.5865 46.1875L61.7861 46.1759L61.7081 44.8278L61.5084 44.8394ZM61.4609 44.1891C61.4783 44.3945 61.4926 44.5905 61.5085 44.8399L61.7081 44.8273C61.6922 44.5767 61.6777 44.3793 61.6602 44.1723L61.4609 44.1891ZM61.452 44.0851L61.461 44.1893L61.6602 44.1721L61.6512 44.0679L61.452 44.0851ZM60.7851 40.9839C61.1381 41.9523 61.3559 42.9812 61.452 44.0852L61.6512 44.0678C61.5538 42.9484 61.3327 41.9021 60.973 40.9154L60.7851 40.9839ZM57.6468 37.2314C59.1524 38.1236 60.1961 39.3704 60.7851 40.9839L60.973 40.9154C60.3678 39.2575 59.2932 37.9745 57.7488 37.0593L57.6468 37.2314ZM54.1411 35.835C55.527 36.2016 56.647 36.637 57.6467 37.2313L57.7489 37.0594C56.7289 36.453 55.5904 36.0115 54.1922 35.6416L54.1411 35.835ZM48.6777 34.9149C50.7367 35.1057 52.4942 35.3924 54.1407 35.8349L54.1926 35.6417C52.5322 35.1955 50.7631 34.9073 48.6961 34.7157L48.6777 34.9149ZM44.9093 34.6577C46.0939 34.7039 47.3367 34.7901 48.6776 34.9149L48.6962 34.7157C47.3523 34.5907 46.1059 34.5042 44.9171 34.4578L44.9093 34.6577ZM39.7048 34.5595C41.3605 34.5595 43.0779 34.5929 44.9097 34.6577L44.9167 34.4578C43.083 34.3929 41.3632 34.3595 39.7048 34.3595V34.5595ZM58.9884 23.1516H21.0049V23.3516H58.9884V23.1516ZM59.0948 23.1556L58.9921 23.1517L58.9846 23.3516L59.0872 23.3554L59.0948 23.1556ZM59.9189 24.0409C59.9189 23.7899 59.8474 23.5762 59.7026 23.4198C59.5578 23.2633 59.35 23.1753 59.0987 23.1558L59.0833 23.3552C59.2967 23.3717 59.4528 23.4444 59.5558 23.5556C59.6588 23.6669 59.7189 23.8279 59.7189 24.0409H59.9189ZM59.9184 35.8817L59.9189 24.0409L59.7189 24.0409L59.7184 35.8816L59.9184 35.8817ZM59.6561 35.8837L59.7578 35.9612L59.879 35.8021L59.7773 35.7246L59.6561 35.8837ZM57.3006 34.5216C58.1399 34.8871 58.9278 35.3437 59.6571 35.8845L59.7762 35.7238C59.0347 35.174 58.2338 34.7098 57.3805 34.3383L57.3006 34.5216ZM57.3249 34.5241C57.325 34.5241 57.3244 34.5241 57.3238 34.5241C57.323 34.5241 57.3221 34.5242 57.3211 34.5241C57.319 34.5241 57.3168 34.524 57.3146 34.5238C57.3102 34.5235 57.3065 34.5228 57.3037 34.5222C57.2986 34.5209 57.2966 34.5198 57.2989 34.5209L57.3822 34.339C57.3593 34.3285 57.3389 34.3235 57.3178 34.3242L57.3249 34.5241ZM57.3223 34.5242L57.3226 34.5242L57.3201 34.3242L57.3198 34.3242L57.3223 34.5242ZM57.225 34.3939L57.2228 34.4054L57.4193 34.4429L57.4215 34.4314L57.225 34.3939ZM57.2236 31.1783L57.2232 34.4126L57.4232 34.4127L57.4236 31.1783L57.2236 31.1783ZM57.2295 30.695L57.2236 31.1771L57.4236 31.1795L57.4295 30.6974L57.2295 30.695ZM56.3498 29.0157C56.9453 29.4449 57.2422 29.9939 57.2295 30.6944L57.4295 30.698C57.4434 29.9255 57.11 29.3171 56.4667 28.8535L56.3498 29.0157ZM54.4771 28.228C55.2814 28.4326 55.8525 28.6614 56.3502 29.016L56.4663 28.8531C55.9406 28.4785 55.3431 28.2419 54.5264 28.0342L54.4771 28.228ZM51.4082 27.7524C52.5751 27.85 53.5543 27.9963 54.4774 28.2281L54.5261 28.0341C53.5895 27.799 52.599 27.6513 51.4249 27.5531L51.4082 27.7524ZM46.9196 27.6415C48.6407 27.6061 50.0524 27.6352 51.4079 27.7524L51.4252 27.5531C50.0604 27.4352 48.6411 27.406 46.9155 27.4416L46.9196 27.6415ZM42.3626 28.0795C43.7276 27.8054 45.1644 27.6769 46.9196 27.6415L46.9156 27.4416C45.1528 27.4771 43.7035 27.6062 42.3232 27.8835L42.3626 28.0795ZM40.2055 28.783C40.783 28.4597 41.3941 28.2725 42.3625 28.0796L42.3234 27.8834C41.3472 28.078 40.7122 28.2701 40.1078 28.6085L40.2055 28.783ZM39.7949 28.7835C39.8603 28.8211 39.9246 28.8493 39.9979 28.849C40.0701 28.8487 40.1359 28.8207 40.2042 28.7838L40.1091 28.6078C40.047 28.6414 40.0177 28.6489 39.9971 28.649C39.9776 28.6491 39.951 28.6426 39.8945 28.6101L39.7949 28.7835ZM39.638 28.6994L39.7974 28.7849L39.8919 28.6087L39.7326 28.5231L39.638 28.6994ZM37.4915 28.0486C38.4305 28.2238 39.0637 28.4044 39.6396 28.7002L39.731 28.5223C39.1298 28.2135 38.4746 28.0286 37.5282 27.852L37.4915 28.0486ZM31.2822 27.6354C33.7473 27.5916 35.6576 27.7014 37.4913 28.0485L37.5285 27.852C35.6765 27.5014 33.7514 27.3915 31.2787 27.4354L31.2822 27.6354ZM28.2215 27.7831C29.2409 27.703 30.259 27.6538 31.2822 27.6354L31.2786 27.4354C30.2514 27.4539 29.2292 27.5033 28.2058 27.5838L28.2215 27.7831ZM24.6484 28.4949C25.6844 28.1101 26.8115 27.8983 28.2218 27.7831L28.2055 27.5838C26.7841 27.6998 25.6375 27.9141 24.5787 28.3074L24.6484 28.4949ZM23.2011 29.4237C23.5498 29.0137 24.011 28.73 24.6482 28.495L24.5789 28.3073C23.9218 28.5497 23.4269 28.8495 23.0487 29.2942L23.2011 29.4237ZM22.77 30.5824C22.77 30.1496 22.9143 29.7635 23.2013 29.4234L23.0485 29.2944C22.7321 29.6693 22.57 30.1007 22.57 30.5824H22.77ZM22.7705 34.4174L22.77 30.5824L22.57 30.5824L22.5705 34.4174L22.7705 34.4174ZM22.3574 34.6707L22.7121 34.5084L22.6289 34.3265L22.2742 34.4888L22.3574 34.6707ZM20.2843 35.9253C20.9539 35.4288 21.6401 35.0129 22.3589 34.67L22.2727 34.4895C21.5417 34.8383 20.8445 35.2609 20.1652 35.7647L20.2843 35.9253ZM20.2455 35.9538L20.2838 35.9256L20.1656 35.7643L20.1273 35.7924L20.2455 35.9538ZM20.0869 24.0409L20.0864 35.8731L20.2864 35.8731L20.2869 24.0409L20.0869 24.0409ZM20.0911 23.9419L20.087 24.0366L20.2868 24.0452L20.2909 23.9505L20.0911 23.9419ZM21.0049 23.1516C20.7492 23.1516 20.5304 23.223 20.3691 23.3617C20.2071 23.5009 20.1124 23.7001 20.0914 23.9374L20.2906 23.955C20.3077 23.7619 20.3826 23.6138 20.4994 23.5133C20.6169 23.4123 20.786 23.3516 21.0049 23.3516V23.1516ZM45.6008 29.9542L46.2944 29.9177L46.2839 29.7179L45.5903 29.7544L45.6008 29.9542ZM44.9575 30.0015L45.6029 29.954L45.5882 29.7546L44.9429 29.802L44.9575 30.0015ZM42.5895 30.3352C43.3015 30.1783 44.037 30.0774 44.9584 30.0014L44.942 29.8021C44.0146 29.8786 43.2697 29.9805 42.5465 30.1399L42.5895 30.3352ZM41.2486 30.7972C41.6072 30.5993 42.0037 30.4677 42.5901 30.3351L42.546 30.14C41.9513 30.2745 41.5341 30.4112 41.152 30.6221L41.2486 30.7972ZM41.2461 30.7767C41.2457 30.779 41.2445 30.7853 41.2405 30.7931C41.2365 30.801 41.2317 30.8063 41.2289 30.8089C41.2268 30.8108 41.2264 30.8107 41.2307 30.808C41.2348 30.8053 41.2407 30.8017 41.2503 30.7963L41.1504 30.623C41.1336 30.6326 41.1102 30.646 41.0921 30.663C41.0665 30.687 41.053 30.7155 41.0483 30.7468L41.2461 30.7767ZM41.2514 31.4942L41.2472 30.7612L41.0472 30.7623L41.0514 31.4953L41.2514 31.4942ZM41.2481 32.1955L41.2514 31.4952L41.0514 31.4943L41.0481 32.1946L41.2481 32.1955ZM41.4443 32.0955L41.1482 32.0951L41.1479 32.2951L41.444 32.2955L41.4443 32.0955ZM46.7973 32.2828C45.1283 32.1662 43.3771 32.1076 41.4448 32.0955L41.4435 32.2955C43.3726 32.3076 45.1194 32.3661 46.7833 32.4823L46.7973 32.2828ZM47.3502 32.3238L46.7977 32.2828L46.7829 32.4823L47.3354 32.5233L47.3502 32.3238ZM47.9609 32.3744L47.3511 32.3239L47.3346 32.5232L47.9444 32.5737L47.9609 32.3744ZM50.7008 32.6693C49.6592 32.5425 48.7858 32.4472 47.9614 32.3744L47.9438 32.5736C48.7653 32.6462 49.6364 32.7412 50.6767 32.8678L50.7008 32.6693ZM54.0149 33.2684C52.9285 33.0029 51.8237 32.8041 50.7007 32.6693L50.6768 32.8679C51.7921 33.0018 52.8891 33.1992 53.9674 33.4627L54.0149 33.2684ZM54.736 33.4541L54.016 33.2687L53.9662 33.4624L54.6862 33.6478L54.736 33.4541ZM55.0882 33.5487L54.737 33.4544L54.6852 33.6475L55.0363 33.7418L55.0882 33.5487ZM54.9626 31.5199L54.9622 33.6453L55.1622 33.6453L55.1626 31.5199L54.9626 31.5199ZM54.9686 30.8516C54.9658 31.0655 54.9638 31.2842 54.9626 31.5193L55.1626 31.5204C55.1638 31.2857 55.1658 31.0675 55.1686 30.8543L54.9686 30.8516ZM54.9166 30.7675C54.9585 30.788 54.9628 30.7963 54.9628 30.7963C54.9631 30.7967 54.9686 30.8051 54.9686 30.8529H55.1686C55.1686 30.8001 55.1646 30.7426 55.1331 30.6914C55.1014 30.6399 55.0517 30.6109 55.0046 30.5879L54.9166 30.7675ZM53.4847 30.3053C54.0963 30.4369 54.5225 30.5693 54.9157 30.767L55.0055 30.5883C54.591 30.3799 54.1464 30.2431 53.5268 30.1098L53.4847 30.3053ZM49.7969 29.9114C51.2576 29.9686 52.3998 30.083 53.4856 30.3055L53.5258 30.1096C52.4256 29.8841 51.2717 29.769 49.8048 29.7115L49.7969 29.9114ZM46.9881 29.8931C47.9159 29.8681 48.8514 29.8743 49.7969 29.9114L49.8048 29.7115C48.8549 29.6743 47.9151 29.668 46.9827 29.6932L46.9881 29.8931ZM46.2927 29.9177L46.9889 29.8931L46.9818 29.6932L46.2856 29.7179L46.2927 29.9177ZM29.3928 29.7545L28.7471 29.802L28.7618 30.0015L29.4075 29.954L29.3928 29.7545ZM33.6086 29.7115C32.1357 29.6538 30.7427 29.6659 29.3936 29.7545L29.4067 29.954C30.748 29.866 32.1339 29.8539 33.6008 29.9114L33.6086 29.7115ZM37.1859 30.0851C36.128 29.8767 35.0258 29.7694 33.6088 29.7115L33.6006 29.9114C35.0119 29.969 36.103 30.0757 37.1473 30.2814L37.1859 30.0851ZM38.8091 30.5943C38.3552 30.364 37.864 30.218 37.1858 30.0851L37.1474 30.2814C37.8166 30.4125 38.2878 30.554 38.7186 30.7727L38.8091 30.5943ZM38.9725 30.8432C38.9741 30.7989 38.9739 30.7415 38.9382 30.69C38.9059 30.6434 38.854 30.6163 38.8079 30.5937L38.7198 30.7733C38.7433 30.7848 38.7575 30.7927 38.7667 30.7989C38.7754 30.8047 38.7755 30.8064 38.7738 30.8038C38.7688 30.7966 38.7741 30.7934 38.7726 30.8361L38.9725 30.8432ZM38.9669 31.0203L38.9725 30.8428L38.7726 30.8365L38.767 31.014L38.9669 31.0203ZM38.9622 31.3996C38.9625 31.2541 38.964 31.1358 38.9669 31.0196L38.767 31.0146C38.764 31.1327 38.7625 31.2524 38.7622 31.3991L38.9622 31.3996ZM38.9656 32.2063L38.9622 31.3989L38.7622 31.3998L38.7656 32.2071L38.9656 32.2063ZM38.0977 32.3027L38.8651 32.3067L38.8662 32.1067L38.0987 32.1027L38.0977 32.3027ZM37.7811 32.3079L38.0999 32.3026L38.0966 32.1027L37.7778 32.1079L37.7811 32.3079ZM34.6119 32.413L37.7828 32.3079L37.7761 32.108L34.6053 32.2131L34.6119 32.413ZM33.8268 32.4494L34.6132 32.413L34.604 32.2132L33.8176 32.2496L33.8268 32.4494ZM30.7043 32.6956C31.7119 32.5879 32.7511 32.5065 33.8275 32.4493L33.8169 32.2496C32.7373 32.307 31.6945 32.3886 30.683 32.4967L30.7043 32.6956ZM30.2279 32.7468L30.7043 32.6956L30.6829 32.4967L30.2065 32.548L30.2279 32.7468ZM25.2348 33.6664C26.74 33.2459 28.3492 32.9576 30.2284 32.7468L30.2061 32.548C28.3194 32.7596 26.6992 33.0496 25.181 33.4738L25.2348 33.6664ZM24.9769 33.7406L25.2355 33.6662L25.1802 33.474L24.9216 33.5484L24.9769 33.7406ZM24.8499 30.7515L24.8492 33.6445L25.0492 33.6445L25.0499 30.7515L24.8499 30.7515ZM24.9228 30.6389C24.9199 30.6407 24.8982 30.6521 24.8824 30.6686C24.8556 30.6967 24.851 30.7283 24.85 30.7459L25.0497 30.7571C25.0497 30.7577 25.0493 30.7655 25.0459 30.7757C25.0417 30.7878 25.035 30.7984 25.0271 30.8066C25.0238 30.8102 25.0208 30.8126 25.0189 30.814C25.0172 30.8154 25.016 30.8162 25.0159 30.8162C25.0159 30.8163 25.0163 30.816 25.0177 30.8152C25.019 30.8143 25.0207 30.8134 25.0231 30.812L24.9228 30.6389ZM24.9298 30.6349C24.9274 30.6363 24.9251 30.6376 24.9228 30.6389L25.0231 30.812C25.0253 30.8107 25.0281 30.8091 25.0311 30.8073L24.9298 30.6349ZM25.0568 30.5651L24.9323 30.6335L25.0286 30.8088L25.153 30.7404L25.0568 30.5651ZM26.3494 30.1401C25.7998 30.2613 25.4072 30.3831 25.0588 30.564L25.151 30.7415C25.4767 30.5724 25.8497 30.4551 26.3924 30.3354L26.3494 30.1401ZM28.7463 29.8021C27.8184 29.8786 27.0734 29.9805 26.3494 30.1401L26.3924 30.3354C27.1052 30.1783 27.8408 30.0774 28.7627 30.0014L28.7463 29.8021Z" fill="white"/>
</svg>
