<svg width="80" height="80" viewBox="0 0 80 80" fill="none" xmlns="http://www.w3.org/2000/svg">
<path d="M57 16H22.9999C22.2044 16 21.441 16.3161 20.8786 16.8786C20.3162 17.4411 20 18.2045 20 18.9999V61.0001C20 61.7956 20.3161 62.559 20.8786 63.1214C21.4411 63.6838 22.2045 64 22.9999 64H57C57.7956 64 58.559 63.6839 59.1214 63.1214C59.6838 62.5589 60 61.7955 60 61.0001V18.9999C60 18.2044 59.6839 17.441 59.1214 16.8786C58.5589 16.3162 57.7955 16 57 16ZM22.9999 18H57C57.2652 18 57.5197 18.1054 57.7072 18.2929C57.8947 18.4804 58 18.7348 58 19V24H21.9999V19C21.9999 18.4478 22.4477 18 22.9999 18ZM57 62.0001H22.9999C22.4477 62.0001 21.9999 61.5523 21.9999 61.0001V26H58V61.0001C58 61.2653 57.8947 61.5198 57.7072 61.7073C57.5197 61.8948 57.2652 62.0001 57 62.0001Z" fill="white" stroke="white" stroke-width="0.5"/>
<path d="M40 28C35.7567 28 31.687 29.6857 28.6861 32.6862C25.6857 35.6871 23.9999 39.7567 23.9999 44.0001C23.9999 48.2434 25.6857 52.313 28.6861 55.3139C31.687 58.3144 35.7567 60.0001 40 60.0001C44.2433 60.0001 48.3129 58.3144 51.3138 55.3139C54.3143 52.313 56 48.2434 56 44.0001C55.9951 39.7581 54.3076 35.6916 51.308 32.692C48.3085 29.6925 44.2419 28.0049 40 28ZM40 58.0001C36.2871 58.0001 32.7259 56.5251 30.1004 53.8996C27.4749 51.2741 25.9999 47.713 25.9999 44.0001C25.9999 40.2871 27.4749 36.726 30.1004 34.1005C32.7259 31.475 36.2871 30 40 30C43.7129 30 47.2741 31.475 49.8995 34.1005C52.525 36.726 54 40.2871 54 44.0001C53.996 47.7117 52.5197 51.2706 49.8951 53.8952C47.2705 56.5198 43.7116 57.9961 40 58.0001Z" fill="white" stroke="white" stroke-width="0.3"/>
<path d="M40 32C36.8173 32 33.7651 33.2643 31.5147 35.5148C29.2643 37.7653 27.9999 40.8174 27.9999 44.0001C27.9999 47.1827 29.2642 50.2349 31.5147 52.4853C33.7652 54.7357 36.8173 56.0001 40 56.0001C43.1826 56.0001 46.2348 54.7359 48.4852 52.4853C50.7356 50.2348 52 47.1827 52 44.0001C51.9964 40.8183 50.7312 37.7684 48.4817 35.5183C46.2316 33.2687 43.1817 32.0036 40 32ZM40 54.0001C38.1299 53.9974 36.2981 53.4702 34.7124 52.4791C33.1267 51.4875 31.8513 50.071 31.0298 48.391L32.7548 47.904C35.0414 47.2562 37.4874 47.4879 39.612 48.5531C42.2052 49.8513 45.1928 50.1241 47.978 49.316L48.5562 49.1491H48.5557C46.7522 52.1549 43.5053 53.996 39.9999 54L40 54.0001ZM49.6 46.7652L47.4192 47.396C45.1166 48.0625 42.6473 47.8366 40.504 46.7639C37.9339 45.4755 34.9749 45.1955 32.2089 45.979L30.329 46.5098C29.5339 43.4888 30.1968 40.2693 32.1205 37.8075C34.0446 35.3459 37.0081 33.9249 40.1322 33.9665C43.2563 34.0076 46.1814 35.5067 48.0394 38.0183C49.8975 40.5299 50.4747 43.7656 49.6001 46.7652L49.6 46.7652Z" fill="white" stroke="white" stroke-width="0.5"/>
<path d="M24.9999 22H29C29.5522 22 30 21.5522 30 21C30 20.4478 29.5522 20 29 20H24.9999C24.4477 20 23.9999 20.4478 23.9999 21C23.9999 21.5522 24.4477 22 24.9999 22Z" fill="white"/>
<path d="M33 22H34C34.5522 22 35 21.5522 35 21C35 20.4478 34.5522 20 34 20H33C32.4478 20 32 20.4478 32 21C32 21.5522 32.4478 22 33 22Z" fill="white"/>
<path d="M36.5714 36.8161C34.7852 37.621 33.3812 39.0879 32.6553 40.9081C32.4499 41.421 32.699 42.0032 33.212 42.2085C33.7245 42.4139 34.3071 42.1648 34.5124 41.6518C35.0544 40.3153 36.0879 39.2366 37.4004 38.638C37.9036 38.4103 38.1268 37.8175 37.8991 37.3143C37.671 36.8112 37.0786 36.5884 36.5754 36.8161L36.5714 36.8161Z" fill="white" stroke="white" stroke-width="0.5"/>
</svg>
