<!DOCTYPE svg PUBLIC "-//W3C//DTD SVG 1.1//EN" "http://www.w3.org/Graphics/SVG/1.1/DTD/svg11.dtd">
<!-- Uploaded to: SVG Repo, www.svgrepo.com, Transformed by: SVG Repo Mixer Tools -->
<svg fill="#ffffff" height="800px" width="800px" version="1.1" id="Layer_1" xmlns="http://www.w3.org/2000/svg" xmlns:xlink="http://www.w3.org/1999/xlink" viewBox="-179.2 -179.2 870.40 870.40" xml:space="preserve" stroke="#ffffff">
<g id="SVGRepo_bgCarrier" stroke-width="0"/>
<g id="SVGRepo_tracerCarrier" stroke-linecap="round" stroke-linejoin="round"/>
<g id="SVGRepo_iconCarrier"> <g> <g> <g> <path d="M503.916,146.986c-4.466,0-8.084,3.618-8.084,8.084v66.677c0,11.279-2.561,21.969-7.121,31.528 c-0.107,0.224-0.216,0.446-0.324,0.668c-0.421,0.861-0.857,1.714-1.311,2.556c-0.063,0.115-0.122,0.233-0.185,0.348 c-1.089,1.993-2.267,3.929-3.529,5.806c-0.074,0.11-0.149,0.219-0.223,0.329c-0.591,0.868-1.198,1.723-1.824,2.562 c-0.049,0.066-0.096,0.133-0.144,0.197c-0.679,0.905-1.379,1.796-2.098,2.668c-0.066,0.08-0.134,0.156-0.199,0.235 c-0.595,0.716-1.207,1.417-1.829,2.11c-0.237,0.264-0.475,0.525-0.717,0.786c-0.459,0.498-0.929,0.985-1.401,1.47 c-0.299,0.305-0.593,0.617-0.897,0.916c-0.482,0.477-0.978,0.94-1.471,1.403c-0.682,0.638-1.375,1.264-2.081,1.876 c-0.149,0.129-0.297,0.26-0.447,0.387c-9.748,8.305-21.584,14.021-34.327,16.397c-0.176,0.032-0.352,0.064-0.528,0.095 c-0.758,0.136-1.519,0.264-2.283,0.376c-0.875,0.126-1.754,0.241-2.639,0.336c-0.443,0.049-0.888,0.082-1.332,0.122 c-0.71,0.064-1.423,0.121-2.139,0.163c-0.374,0.023-0.749,0.044-1.124,0.061c-1.096,0.049-2.195,0.084-3.303,0.084H89.647 c-1.108,0-2.206-0.036-3.303-0.084c-0.375-0.017-0.75-0.039-1.125-0.061c-0.716-0.043-1.427-0.1-2.137-0.163 c-0.444-0.04-0.89-0.073-1.333-0.122c-0.873-0.094-1.74-0.208-2.603-0.332c-0.777-0.113-1.55-0.243-2.321-0.38 c-0.175-0.031-0.349-0.061-0.524-0.094c-12.745-2.376-24.584-8.094-34.334-16.401c-0.146-0.124-0.289-0.25-0.433-0.375 c-0.747-0.646-1.478-1.311-2.199-1.987c-0.456-0.43-0.915-0.857-1.361-1.298c-0.306-0.302-0.603-0.614-0.903-0.923 c-0.47-0.482-0.938-0.968-1.395-1.463c-0.243-0.262-0.483-0.526-0.722-0.791c-0.619-0.69-1.229-1.389-1.822-2.103 c-0.068-0.081-0.138-0.159-0.205-0.241c-0.719-0.872-1.417-1.761-2.096-2.666c-0.05-0.067-0.098-0.135-0.148-0.202 c-0.625-0.839-1.231-1.692-1.821-2.559c-0.075-0.11-0.151-0.22-0.225-0.331c-1.261-1.876-2.439-3.81-3.528-5.802 c-0.064-0.116-0.125-0.236-0.188-0.354c-0.453-0.84-0.887-1.691-1.307-2.55c-0.11-0.224-0.22-0.447-0.327-0.673 c-4.558-9.559-7.118-20.247-7.118-31.525v-92.886c0-40.516,32.962-73.478,73.479-73.478h332.706 c40.516,0,73.478,32.962,73.478,73.478c0,4.466,3.619,8.084,8.084,8.084c4.466,0,8.084-3.619,8.084-8.084 c0-49.431-40.215-89.646-89.646-89.646H89.647C40.216,39.216,0,79.43,0,128.862v92.886c0,12.122,2.431,23.685,6.811,34.24 C2.295,266.87,0,278.375,0,290.249v92.886c0,49.431,40.216,89.646,89.647,89.646h11.341c4.466,0,8.084-3.618,8.084-8.084 c0-4.466-3.619-8.084-8.084-8.084H89.647c-40.517,0-73.479-32.962-73.479-73.478v-92.886c0-5.109,0.516-10.134,1.542-15.046 c0.875,1.173,1.783,2.316,2.711,3.442c0.042,0.051,0.083,0.102,0.125,0.154c0.84,1.013,1.701,2.007,2.583,2.98 c0.163,0.18,0.328,0.357,0.492,0.536c0.765,0.831,1.541,1.65,2.336,2.45c0.299,0.302,0.604,0.598,0.906,0.896 c0.586,0.575,1.179,1.14,1.781,1.699c0.446,0.415,0.893,0.827,1.346,1.233c0.219,0.195,0.444,0.384,0.665,0.577 c1.083,0.95,2.189,1.872,3.318,2.769c0.019,0.015,0.04,0.031,0.059,0.046c11.268,8.941,24.721,15.227,39.424,17.921 c0.282,0.053,0.566,0.102,0.849,0.152c1.005,0.175,2.015,0.334,3.03,0.474c0.767,0.108,1.536,0.207,2.308,0.294 c0.5,0.056,0.999,0.111,1.502,0.158c1.18,0.113,2.365,0.205,3.555,0.272c0.291,0.016,0.583,0.026,0.875,0.04 c1.353,0.063,2.709,0.104,4.07,0.104h332.706c1.361,0,2.717-0.041,4.07-0.104c0.292-0.013,0.584-0.024,0.875-0.04 c1.189-0.067,2.374-0.157,3.553-0.272c0.503-0.047,1.004-0.102,1.505-0.158c0.77-0.087,1.535-0.186,2.3-0.293 c1.021-0.141,2.034-0.301,3.043-0.476c0.279-0.049,0.558-0.098,0.836-0.15c14.716-2.696,28.182-8.99,39.456-17.944 c0.005-0.004,0.01-0.008,0.015-0.012c1.202-0.955,2.38-1.938,3.531-2.952c0.152-0.134,0.307-0.263,0.458-0.397 c0.462-0.413,0.918-0.833,1.372-1.256c0.584-0.542,1.161-1.093,1.732-1.651c0.324-0.319,0.65-0.636,0.97-0.959 c0.779-0.786,1.542-1.59,2.294-2.405c0.171-0.186,0.345-0.372,0.515-0.56c0.875-0.967,1.731-1.954,2.565-2.961 c0.049-0.059,0.097-0.119,0.146-0.178c0.924-1.12,1.828-2.258,2.698-3.427c1.025,4.912,1.542,9.938,1.542,15.046v92.887 c0,40.516-32.962,73.478-73.478,73.478H125.78c-4.466,0-8.084,3.618-8.084,8.084c0,4.466,3.619,8.084,8.084,8.084h296.574 c49.431,0,89.646-40.215,89.646-89.646v-92.887c0-11.874-2.295-23.38-6.81-34.26c4.379-10.557,6.81-22.118,6.81-34.24v-66.677 C512,150.606,508.382,146.986,503.916,146.986z"/> <path d="M417.226,323.695c-3.751-2.167-8.016-3.311-12.331-3.311c-8.802,0-17.002,4.733-21.401,12.351 c-3.298,5.713-4.175,12.368-2.467,18.739c1.707,6.371,5.795,11.695,11.507,14.992c3.752,2.167,8.017,3.311,12.332,3.311 c8.802,0,17.002-4.732,21.399-12.348c3.298-5.713,4.175-12.368,2.467-18.739S422.939,326.992,417.226,323.695z M412.263,349.345 c-1.519,2.63-4.354,4.264-7.398,4.264c-1.503,0-2.932-0.385-4.249-1.147c-1.973-1.138-3.383-2.976-3.972-5.175 c-0.59-2.199-0.288-4.497,0.852-6.469c1.519-2.631,4.355-4.266,7.399-4.266c1.481,0,2.949,0.396,4.247,1.146 c1.972,1.139,3.385,2.978,3.972,5.178C413.705,345.074,413.402,347.372,412.263,349.345z"/> <path d="M417.225,395.409c-3.752-2.164-8.015-3.309-12.33-3.309c-8.802,0-17.003,4.732-21.402,12.349 c-3.298,5.713-4.175,12.368-2.467,18.739c1.707,6.371,5.794,11.697,11.507,14.995c3.751,2.167,8.015,3.311,12.331,3.311 c0.001,0,0.001,0,0.002,0c8.801,0,17.002-4.733,21.398-12.349c3.298-5.713,4.175-12.368,2.467-18.739 C427.025,404.035,422.939,398.708,417.225,395.409z M412.263,421.061c-1.519,2.631-4.354,4.265-7.397,4.265h-0.001 c-1.482,0-2.95-0.396-4.248-1.146c-1.973-1.139-3.385-2.978-3.973-5.178c-0.59-2.199-0.288-4.497,0.852-6.468 c1.519-2.631,4.355-4.266,7.4-4.266c1.481,0,2.949,0.396,4.247,1.145c1.973,1.139,3.384,2.978,3.972,5.178 C413.705,416.791,413.402,419.088,412.263,421.061z"/> <path d="M347.636,368.59c-6.808,11.791-2.754,26.924,9.038,33.734c3.751,2.167,8.015,3.311,12.331,3.311c0.001,0,0.001,0,0.002,0 c8.801,0,17.002-4.733,21.398-12.351c6.808-11.792,2.754-26.924-9.038-33.734c-3.751-2.167-8.016-3.311-12.331-3.311 C360.233,356.24,352.033,360.973,347.636,368.59z M376.404,385.202c-1.519,2.63-4.354,4.265-7.396,4.265h-0.001 c-1.482,0-2.95-0.396-4.248-1.146c-4.07-2.351-5.47-7.576-3.12-11.649c1.519-2.63,4.354-4.265,7.399-4.265 c1.481,0,2.949,0.396,4.247,1.146C377.355,375.904,378.755,381.13,376.404,385.202z"/> <path d="M440.724,405.635c8.801,0,17.002-4.733,21.398-12.351c6.808-11.792,2.754-26.924-9.038-33.734 c-3.751-2.167-8.016-3.311-12.331-3.311c-8.803,0-17.003,4.733-21.402,12.352c-6.807,11.791-2.753,26.925,9.039,33.733 c3.751,2.167,8.015,3.311,12.331,3.311C440.723,405.635,440.723,405.635,440.724,405.635z M433.354,376.675 c1.519-2.631,4.355-4.266,7.4-4.266c1.481,0,2.949,0.396,4.247,1.146c4.07,2.351,5.47,7.575,3.12,11.649 c-1.519,2.63-4.354,4.265-7.396,4.265h-0.001c-1.482,0-2.95-0.396-4.248-1.146C432.404,385.971,431.004,380.746,433.354,376.675z "/> <path d="M89.286,413.755h24.2c4.466,0,8.084-3.618,8.084-8.084v-13.56h13.56c4.466,0,8.084-3.618,8.084-8.084v-24.2 c0-4.466-3.618-8.084-8.084-8.084h-13.56v-13.56c0-4.466-3.618-8.084-8.084-8.084h-24.2c-4.466,0-8.084,3.618-8.084,8.084v13.56 h-13.56c-4.466,0-8.084,3.618-8.084,8.084v24.2c0,4.466,3.619,8.084,8.084,8.084h13.56v13.56 C81.202,410.136,84.821,413.755,89.286,413.755z M75.726,375.942v-8.031h13.56c4.466,0,8.084-3.62,8.084-8.084v-13.56h8.031 v13.56c0,4.465,3.618,8.084,8.084,8.084h13.56v8.031h-13.56c-4.466,0-8.084,3.618-8.084,8.084v13.56h-8.031v-13.56 c0-4.466-3.618-8.084-8.084-8.084H75.726z"/> <path d="M208.578,373.946c-19.167,0-34.762,15.594-34.762,34.76c0,19.167,15.595,34.762,34.762,34.762 c19.166,0,34.76-15.595,34.76-34.762C243.338,389.54,227.744,373.946,208.578,373.946z M208.578,427.3 c-10.253,0-18.594-8.341-18.594-18.594c0-10.252,8.341-18.592,18.594-18.592c10.252,0,18.592,8.34,18.592,18.592 C227.17,418.959,218.83,427.3,208.578,427.3z"/> <path d="M303.425,443.469c19.166,0,34.76-15.595,34.76-34.762c0-19.166-15.594-34.76-34.76-34.76 c-19.167,0-34.762,15.594-34.762,34.76C268.663,427.874,284.258,443.469,303.425,443.469z M303.425,390.115 c10.252,0,18.592,8.34,18.592,18.592c0,10.253-8.34,18.594-18.592,18.594c-10.253,0-18.594-8.341-18.594-18.594 C284.832,398.455,293.172,390.115,303.425,390.115z"/> <path d="M266.373,339.153h-20.746c-4.465,0-8.084,3.618-8.084,8.084c0,4.466,3.62,8.084,8.084,8.084h20.746 c4.466,0,8.084-3.618,8.084-8.084S270.838,339.153,266.373,339.153z"/> <path d="M69.355,71.877c-11.61,0-21.057,9.447-21.057,21.057v140.15v22.524c0,11.61,9.447,21.057,21.057,21.057h373.291 c11.61,0,21.057-9.447,21.057-21.057v-22.524V92.934c0-11.61-9.447-21.057-21.057-21.057H69.355z M447.534,255.608h-0.001 c0,2.696-2.192,4.888-4.888,4.888H69.355c-2.696,0-4.888-2.192-4.888-4.888v-14.439h383.068V255.608z M447.533,92.934V225H64.467 V92.934c0-2.696,2.192-4.888,4.888-4.888h373.291C445.341,88.046,447.533,90.238,447.533,92.934z"/> </g> </g> </g> </g>
</svg>