<svg width="80" height="80" viewBox="0 0 80 80" fill="none" xmlns="http://www.w3.org/2000/svg">
<path fill-rule="evenodd" clip-rule="evenodd" d="M33.2009 20.0001L33.3033 20.0098L46.652 20.0129C46.889 19.9802 47.1302 20.018 47.3458 20.1175L47.5007 20.2021L47.5293 20.2216C47.8652 20.4461 48.0711 20.8212 48.0711 21.2308L48.068 21.3188C48.067 21.3313 48.0658 21.3422 48.0646 21.3506L48.0605 21.3679L48.059 25.7938L56.9745 27.8902C58.5639 28.264 59.7406 29.5599 59.9625 31.1343L59.9832 31.3103L59.9958 31.4884L60 31.6656V57.0054C60 58.5442 58.8195 59.8194 57.2838 59.9828L57.1238 59.9957L56.9609 60H23.0391C21.4798 60 20.1839 58.8392 20.0176 57.324L20.0044 57.166L20 57.0054V31.6528C20 29.9922 21.0709 28.5254 22.6524 27.9848L22.8238 27.9305L23.0027 27.8828L31.6554 25.7941L31.7542 25.7719L31.8536 25.7531L31.9402 25.7414L31.9408 21.224C31.9408 20.5444 32.4876 20.0286 33.0935 20L33.2009 20.0001ZM32.4004 28.1503L32.3205 28.1536L32.242 28.1661L23.5894 30.2549C23.0125 30.3941 22.5839 30.8578 22.4912 31.4109L22.4766 31.5307L22.4716 31.6528V57.0054C22.4716 57.2587 22.6482 57.4764 22.8798 57.5386L22.9589 57.5535L23.039 57.5582L27.732 57.5575L27.7313 39.7228C27.7313 39.0601 28.2104 38.5026 28.8661 38.3798L28.991 38.3619L29.1153 38.3562C29.784 38.3562 30.3499 38.827 30.4751 39.4761L30.4934 39.5998L30.4993 39.7228L30.4984 57.5575H39.0459V32.8518L38.6513 32.5581C38.5747 32.5216 38.4997 32.4818 38.4238 32.4372L38.3089 32.3664L38.158 32.2624L32.7205 28.2616C32.6507 28.2102 32.5703 28.1758 32.4859 28.1599L32.4004 28.1503ZM42.4549 31.7551L47.3803 28.1536L47.4179 28.156C47.4377 28.1586 47.4575 28.1621 47.4771 28.1667L56.4021 30.2657L56.5227 30.2991L56.639 30.3415C57.1696 30.5611 57.5284 31.0823 57.5284 31.6656V57.0054L57.5236 57.0834L57.5087 57.1598C57.4456 57.384 57.2233 57.5582 56.9609 57.5582L52.6738 57.5575L52.6751 39.7228L52.6692 39.5998L52.651 39.4761C52.5258 38.827 51.9598 38.3562 51.2911 38.3562L51.1669 38.3619L51.042 38.3798C50.3863 38.5026 49.9071 39.0601 49.9071 39.7228L49.9066 57.5575H41.8131L41.8139 32.2469L42.4549 31.7551ZM36.7746 46.3112C37.6231 46.3112 38.313 46.9898 38.313 47.8298C38.313 48.6697 37.6231 49.3484 36.7746 49.3484C35.9261 49.3484 35.2361 48.6697 35.2361 47.8298C35.2361 46.9898 35.9261 46.3112 36.7746 46.3112ZM38.313 43.6726C38.313 42.8327 37.6231 42.154 36.7746 42.154C35.9261 42.154 35.2361 42.8327 35.2361 43.6726C35.2361 44.5125 35.9261 45.1912 36.7746 45.1912C37.6231 45.1912 38.313 44.5125 38.313 43.6726ZM36.7746 37.9968C37.6231 37.9968 38.313 38.6755 38.313 39.5154C38.313 40.3554 37.6231 41.0341 36.7746 41.0341C35.9261 41.0341 35.2361 40.3554 35.2361 39.5154C35.2361 38.6755 35.9261 37.9968 36.7746 37.9968ZM34.4115 26.4282V23.6456L38.7623 26.8274V29.6093L34.4115 26.4282ZM45.5869 23.6456L41.2352 26.8274V29.6093L45.5869 26.4282V23.6456ZM36.932 22.4513H43.0672L39.9992 24.6939L36.932 22.4513Z" fill="white"/>
</svg>
