<svg width="80" height="80" viewBox="0 0 80 80" fill="none" xmlns="http://www.w3.org/2000/svg">
<path d="M28.5943 28.7801C29.4944 32.4621 33.1982 35.415 35.0213 34.6792C36.8444 33.9434 38.3007 31.7178 38.1986 27.2578C37.9905 18.0465 26.0728 18.4405 28.5943 28.7801Z" stroke="white" stroke-width="2.5" stroke-linecap="round" stroke-linejoin="round"/>
<path d="M51.6476 29.2465C50.7031 32.915 46.9642 35.8251 45.148 35.0687C43.3318 34.3124 41.9055 32.0655 42.0656 27.605C42.3872 18.3914 54.2943 18.9339 51.6476 29.2465Z" stroke="white" stroke-width="2.5" stroke-linecap="round" stroke-linejoin="round"/>
<path d="M60.3995 39.2508C58.7006 42.0097 54.9078 43.44 53.6143 42.358C52.3208 41.2761 51.7242 39.0828 52.9844 35.4753C55.5842 28.0399 65.1757 31.5008 60.4001 39.252L60.3995 39.2508Z" stroke="white" stroke-width="2.5" stroke-linecap="round" stroke-linejoin="round"/>
<path d="M28.3408 58.3378C32.31 59.9926 34.869 57.4176 40.2076 57.376C45.339 57.3343 46.1962 60.1628 51.4628 58.2055C55.1798 57.0054 55.1081 52.7298 53.7351 50.0016C52.7358 48.0183 50.9455 46.2329 48.5642 44.7907C47.4372 43.8654 46.7142 42.2698 45.5385 40.9712C42.8663 38.0192 36.0425 37.972 33.6846 41.1061C32.6861 42.4367 32.1071 44.0814 30.1038 45.1623C24.2562 48.3143 23.0179 56.6858 28.3419 58.3373L28.3408 58.3378Z" stroke="white" stroke-width="2.5" stroke-linecap="round" stroke-linejoin="round"/>
<path d="M18.923 38.9182C20.6293 41.6735 24.4145 43.1003 25.7093 42.0231C27.0041 40.9459 27.5986 38.746 26.3367 35.1405C23.7332 27.7006 14.1408 31.1607 18.923 38.9182Z" stroke="white" stroke-width="2.5" stroke-linecap="round" stroke-linejoin="round"/>
</svg>
