<!DOCTYPE svg PUBLIC "-//W3C//DTD SVG 1.1//EN" "http://www.w3.org/Graphics/SVG/1.1/DTD/svg11.dtd">
<!-- Uploaded to: SVG Repo, www.svgrepo.com, Transformed by: SVG Repo Mixer Tools -->
<svg fill="#ffffff" width="800px" height="800px" viewBox="-7.5 -7.5 45.00 45.00" xmlns="http://www.w3.org/2000/svg" stroke="#ffffff">
<g id="SVGRepo_bgCarrier" stroke-width="0"/>
<g id="SVGRepo_tracerCarrier" stroke-linecap="round" stroke-linejoin="round"/>
<g id="SVGRepo_iconCarrier">
<path d="M8.5 26h13c.3 0 .5-.2.5-.5s-.2-.5-.5-.5h-13c-.3 0-.5.2-.5.5s.2.5.5.5zm5 2h3c.3 0 .5-.2.5-.5s-.2-.5-.5-.5h-3c-.3 0-.5.2-.5.5s.2.5.5.5zm-5-24h13c.3 0 .5.2.5.5s-.2.5-.5.5h-13c-.3 0-.5-.2-.5-.5s.2-.5.5-.5zm5-2h3c.3 0 .5.2.5.5s-.2.5-.5.5h-3c-.3 0-.5-.2-.5-.5s.2-.5.5-.5zm-6-2C6.7 0 6 .7 6 1.5v27c0 .8.7 1.5 1.5 1.5h15c.8 0 1.5-.7 1.5-1.5v-27c0-.8-.7-1.5-1.5-1.5h-15zm0 1h15c.3 0 .5.2.5.5v27c0 .3-.2.5-.5.5h-15c-.3 0-.5-.2-.5-.5v-27c0-.3.2-.5.5-.5z"/>
</g>
</svg>