<svg width="80" height="80" viewBox="0 0 80 80" fill="none" xmlns="http://www.w3.org/2000/svg">
<path fill-rule="evenodd" clip-rule="evenodd" d="M46.5024 16C47.1285 16 47.6457 16.461 47.7652 17.0685L47.7913 17.3369L47.7889 20.3741L48.0855 20.4376L48.3777 20.5384L48.6726 20.6794C49.9269 21.3576 50.5668 22.8839 50.6302 25.2661C50.7023 27.9576 50.0811 30.5718 48.9434 32.2255L48.6205 32.6521L48.5048 32.7763L48.6689 33.1972C49.5454 35.5602 50.3188 38.1329 50.9847 40.8989L51.3713 42.5816L51.7319 44.3099C52.5939 48.6454 53.2795 54.3554 53.6877 60.4968C53.8543 63.0021 49.4989 63.993 40.7894 64L39.8396 63.997C30.5358 63.9324 25.8314 62.9244 26.0046 60.413C26.3662 55.1722 26.9944 50.2774 27.8834 45.7785C28.6503 41.8963 29.6151 38.2939 30.7665 35.0111L31.3766 33.3374L31.281 33.2678C29.7664 32.0637 28.7605 29.4679 28.5691 26.6417L28.5384 25.931L28.5412 25.266C28.6048 22.8685 29.2035 21.3578 30.5241 20.6976L30.583 20.6682L30.5658 20.4666V17.3369C30.5658 16.6021 31.1391 16 31.8547 16C32.4808 16 32.998 16.461 33.1175 17.0685L33.1435 17.3369L33.1427 20.4011L33.3902 20.4405C34.1776 20.5898 35.0456 20.8869 35.9804 21.3243L36.6939 21.6784L37.4311 22.0844L38.2097 22.5555C38.7377 22.888 39.2602 23.2406 39.637 23.5146L39.9036 23.7138L40.4253 23.2952C41.6119 22.3817 42.9093 21.5958 44.1312 21.0645L44.8538 20.7772L45.2266 20.6572L45.2136 20.4666V17.3369C45.2136 16.6021 45.7869 16 46.5024 16ZM33.9093 33.9831L33.5485 34.9281C32.2816 38.346 31.2294 42.1606 30.4086 46.3155C29.6802 50.0019 29.1306 53.9694 28.7639 58.1875L28.6108 60.0889L28.773 60.1594C29.2225 60.3329 29.8782 60.499 30.702 60.6475L31.3507 60.7554C33.5731 61.0966 36.6432 61.301 39.8569 61.3233C43.0992 61.3458 46.1548 61.181 48.3553 60.8626C49.295 60.7267 50.0611 60.5651 50.6112 60.3892L51.0523 60.2248L50.9831 58.824C50.6156 54.0431 50.0789 49.6051 49.4282 46.0145L49.2072 44.8497C48.5782 41.6804 47.8178 38.7458 46.9344 36.0738L46.4825 34.7598L46.1916 33.9864L33.9093 33.9831ZM41.8439 25.5349C43.6689 24.1125 45.8875 23.0021 47.0936 23.0021L47.3531 23.0129L47.4809 23.0504C47.7808 23.2126 48.0163 23.9434 48.0535 25.3401C48.1153 27.6501 47.4601 30.0706 46.5846 31.0013L46.5529 31.0253L46.4677 31.0406L32.7172 31.0287L32.6567 30.9755L32.4366 30.7116C31.647 29.6356 31.0614 27.407 31.1179 25.3402C31.1662 23.5157 31.4479 23.0021 32.2731 23.0021C33.1907 23.0021 34.5732 23.4958 36.1784 24.4213C37.0374 24.9167 38.1625 25.6797 38.4657 25.9419L39.7311 26.9495L40.1591 26.943L41.3569 25.93L41.8439 25.5349Z" fill="white"/>
</svg>
