<svg width="80" height="80" viewBox="0 0 80 80" fill="none" xmlns="http://www.w3.org/2000/svg">
<path fill-rule="evenodd" clip-rule="evenodd" d="M56.155 28.2864C56.0564 24.7996 53.3159 22 49.9431 22H30.6832L30.4965 22.0029L30.3112 22.0114C27.0495 22.2121 24.4686 25.0343 24.4686 28.4808L24.4681 30.755L24.2451 30.6674L23.9938 30.581C23.403 30.3922 22.7827 30.2945 22.1493 30.2945C18.7532 30.2945 16 33.0945 16 36.5498L16.003 36.7476L16.0121 36.944C16.1806 39.6835 18.0934 41.9934 20.7059 42.6318L20.7464 42.641L20.747 52.013L20.7518 52.242L20.7621 52.4186C20.9627 55.1135 23.1358 57.2257 25.7718 57.1982L27.1129 57.184L27.1132 57.2H53.7915L53.7913 57.1935L54.2282 57.1982L54.3995 57.197C57.0714 57.1308 59.226 54.8662 59.2528 52.0647L59.2528 42.641L59.2941 42.6318C62.031 41.963 64 39.4597 64 36.5498C64 33.0945 61.2468 30.2945 57.8507 30.2945L57.5658 30.3012L57.2829 30.3209C56.9072 30.3559 56.5377 30.4257 56.1779 30.5289L56.1563 30.5351L56.1577 28.4808L56.155 28.2864ZM51.6186 50.2281L51.7008 50.2202V54.8463H28.2984V50.2202L28.3814 50.2281C28.4322 50.2311 28.4833 50.2326 28.5345 50.2326H51.4655L51.6186 50.2281ZM57.8507 32.6481C55.7118 32.6481 53.9786 34.3959 53.9786 36.5498C53.9786 36.644 53.9819 36.7378 53.9887 36.8379L54.0017 36.9937L53.9929 37.2872L53.9826 37.373L53.9786 37.459L53.9668 42.3438C54.071 42.616 54.1336 42.9043 54.1515 43.2005L54.1569 43.3791V47.4332C54.1569 47.7409 54.1091 48.0418 54.0241 48.2873L53.9786 48.4051L53.978 54.842L54.2512 54.8449C55.6916 54.8598 56.884 53.685 56.9707 52.1889L56.9756 52.0431L56.9758 40.5029L58.0565 40.4461C60.109 40.3383 61.7228 38.6242 61.7228 36.5498C61.7228 34.3959 59.9896 32.6481 57.8507 32.6481ZM18.2772 36.5498C18.2772 34.3959 20.0104 32.6481 22.1493 32.6481C24.2882 32.6481 26.0214 34.3959 26.0214 36.5498C26.0214 36.6911 26.014 36.8315 25.9993 36.9706L26.0051 37.2642L26.0141 37.3376C26.0188 37.3828 26.021 37.4216 26.0214 37.4609L26.0214 42.4072L25.9759 42.5251C25.8909 42.7705 25.8431 43.0715 25.8431 43.3791V47.4332L25.8485 47.6119C25.8664 47.9081 25.929 48.1964 26.0332 48.4686L26.0212 54.842L25.7487 54.8449L25.6101 54.8427C24.1867 54.7817 23.0388 53.559 23.0243 52.0415L23.0242 40.5029L21.9435 40.4461L21.7824 40.4343C19.8072 40.2478 18.2772 38.5696 18.2772 36.5498ZM51.4655 42.9334H28.5345C28.4698 42.9334 28.4073 42.9494 28.351 42.9794L28.2984 43.0133V47.7983L28.351 47.8329C28.3886 47.8529 28.4288 47.8667 28.4707 47.8737L28.5345 47.879H51.4655C51.5302 47.879 51.5927 47.863 51.649 47.8329L51.7008 47.7983V43.0133L51.649 42.9794C51.6114 42.9594 51.5712 42.9456 51.5293 42.9386L51.4655 42.9334ZM30.6832 24.3536H49.9431L50.1013 24.3568C52.1998 24.4438 53.8805 26.2543 53.8805 28.4808L53.8791 31.7747L53.7781 31.8628C52.4688 33.0398 51.7014 34.7302 51.7014 36.5498C51.7014 36.7319 51.709 36.9135 51.7244 37.094L51.7151 37.1679C51.707 37.2475 51.7024 37.3423 51.7015 37.4375L51.7008 40.5914L51.6186 40.5842C51.5678 40.5813 51.5167 40.5798 51.4655 40.5798H28.5345L28.4355 40.5817L28.3369 40.5872L28.2977 40.587L28.2985 37.4392L28.2917 37.2478L28.2751 37.0589C28.291 36.9135 28.2986 36.7319 28.2986 36.5498L28.2939 36.3014C28.2399 34.8984 27.7301 33.5801 26.8576 32.5255L26.7453 32.3952L26.7458 28.4808L26.749 28.3146C26.8322 26.1098 28.5646 24.3536 30.6832 24.3536ZM33.1096 35.4319L33.9136 34.532L34.9376 35.4158L34.016 36.448L34.9376 37.4803L33.9136 38.3641L33.1096 37.4633L32.3069 38.3641L31.283 37.4803L32.2032 36.448L31.283 35.4158L32.3069 34.532L33.1096 35.4319ZM47.6931 34.532L46.8897 35.4319L46.0864 34.532L45.0624 35.4158L45.9833 36.448L45.0624 37.4803L46.0864 38.3641L46.8897 37.4633L47.6931 38.3641L48.717 37.4803L47.7961 36.448L48.717 35.4158L47.6931 34.532ZM33.1096 28.7961L33.9136 27.8964L34.9376 28.7802L34.016 29.8122L34.9376 30.8447L33.9136 31.7285L33.1096 30.8283L32.3069 31.7285L31.283 30.8447L32.2032 29.8122L31.283 28.7802L32.3069 27.8964L33.1096 28.7961ZM47.6931 27.8964L46.8897 28.7961L46.0864 27.8964L45.0624 28.7802L45.9833 29.8122L45.0624 30.8447L46.0864 31.7285L46.8897 30.8283L47.6931 31.7285L48.717 30.8447L47.7961 29.8122L48.717 28.7802L47.6931 27.8964Z" fill="white"/>
<path d="M56.155 28.2864L56.255 28.285L56.2549 28.2836L56.155 28.2864ZM30.6832 22V21.9L30.6817 21.9L30.6832 22ZM30.4965 22.0029L30.495 21.9028L30.4919 21.903L30.4965 22.0029ZM30.3112 22.0114L30.3065 21.9115L30.305 21.9116L30.3112 22.0114ZM24.4686 28.4808L24.5686 28.4808V28.4808H24.4686ZM24.4681 30.755L24.4315 30.8481L24.5681 30.9017L24.5681 30.755L24.4681 30.755ZM24.2451 30.6674L24.2817 30.5743L24.2776 30.5729L24.2451 30.6674ZM23.9938 30.581L24.0263 30.4864L24.0242 30.4857L23.9938 30.581ZM16 36.5498H15.9L15.9 36.5514L16 36.5498ZM16.003 36.7476L15.903 36.7491L15.9031 36.7522L16.003 36.7476ZM16.0121 36.944L15.9122 36.9486L15.9123 36.9501L16.0121 36.944ZM20.7059 42.6318L20.6822 42.729L20.6838 42.7294L20.7059 42.6318ZM20.7464 42.641L20.8464 42.641L20.8464 42.5611L20.7685 42.5435L20.7464 42.641ZM20.747 52.013L20.647 52.013L20.647 52.0152L20.747 52.013ZM20.7518 52.242L20.6518 52.2441L20.652 52.2478L20.7518 52.242ZM20.7621 52.4186L20.6622 52.4244L20.6624 52.426L20.7621 52.4186ZM25.7718 57.1982L25.7728 57.2982H25.7728L25.7718 57.1982ZM27.1129 57.184L27.2129 57.1825L27.2114 57.083L27.1119 57.084L27.1129 57.184ZM27.1132 57.2L27.0132 57.2015L27.0147 57.3H27.1132V57.2ZM53.7915 57.2V57.3H53.8959L53.8914 57.1957L53.7915 57.2ZM53.7913 57.1935L53.7923 57.0935L53.6869 57.0923L53.6913 57.1977L53.7913 57.1935ZM54.2282 57.1982L54.2271 57.2982L54.229 57.2982L54.2282 57.1982ZM54.3995 57.197L54.4002 57.297L54.402 57.297L54.3995 57.197ZM59.2528 52.0647L59.3528 52.0657V52.0647H59.2528ZM59.2528 42.641L59.2311 42.5434L59.1528 42.5608V42.641H59.2528ZM59.2941 42.6318L59.3158 42.7295L59.3178 42.729L59.2941 42.6318ZM57.8507 30.2945V30.1945L57.8484 30.1946L57.8507 30.2945ZM57.5658 30.3012L57.5634 30.2011L57.5588 30.2014L57.5658 30.3012ZM57.2829 30.3209L57.2759 30.2211L57.2736 30.2213L57.2829 30.3209ZM56.1779 30.5289L56.2053 30.6251L56.2055 30.6251L56.1779 30.5289ZM56.1563 30.5351L56.0563 30.535L56.0562 30.6675L56.1836 30.6313L56.1563 30.5351ZM56.1577 28.4808L56.2577 28.4809L56.2577 28.4794L56.1577 28.4808ZM51.7008 50.2202H51.8008V50.1102L51.6913 50.1207L51.7008 50.2202ZM51.6186 50.2281L51.6215 50.3283L51.6281 50.3277L51.6186 50.2281ZM51.7008 54.8463V54.9463H51.8008V54.8463H51.7008ZM28.2984 54.8463H28.1984V54.9463H28.2984V54.8463ZM28.2984 50.2202L28.3079 50.1207L28.1984 50.1103V50.2202H28.2984ZM28.3814 50.2281L28.372 50.3277L28.3756 50.3279L28.3814 50.2281ZM51.4655 50.2326V50.3326L51.4684 50.3325L51.4655 50.2326ZM53.9887 36.8379L53.8889 36.8447L53.889 36.8462L53.9887 36.8379ZM54.0017 36.9937L54.1023 36.9967L54.1013 36.9854L54.0017 36.9937ZM53.9929 37.2872L54.0925 37.2991L54.0928 37.2902L53.9929 37.2872ZM53.9826 37.373L53.883 37.3611L53.8827 37.3683L53.9826 37.373ZM53.9786 37.459L53.8786 37.4543L53.8786 37.4588L53.9786 37.459ZM53.9668 42.3438L53.8668 42.3435L53.8668 42.3621L53.8734 42.3795L53.9668 42.3438ZM54.1515 43.2005L54.2515 43.1975L54.2513 43.1945L54.1515 43.2005ZM54.1569 43.3791H54.2569L54.2568 43.3761L54.1569 43.3791ZM54.0241 48.2873L54.1175 48.3233L54.1186 48.32L54.0241 48.2873ZM53.9786 48.4051L53.8853 48.3691L53.8786 48.3865V48.4051L53.9786 48.4051ZM53.978 54.842L53.878 54.8419L53.878 54.9409L53.977 54.942L53.978 54.842ZM54.2512 54.8449L54.2501 54.9449H54.2502L54.2512 54.8449ZM56.9707 52.1889L57.0706 52.1947L57.0707 52.1923L56.9707 52.1889ZM56.9756 52.0431L57.0756 52.0465V52.0431L56.9756 52.0431ZM56.9758 40.5029L56.9705 40.4031L56.8758 40.4081V40.5029L56.9758 40.5029ZM58.0565 40.4461L58.0618 40.546L58.0565 40.4461ZM25.9993 36.9706L25.899 36.96L25.8993 36.9726L25.9993 36.9706ZM26.0051 37.2642L25.9046 37.2662L25.9058 37.2764L26.0051 37.2642ZM26.0141 37.3376L26.1135 37.3272L26.1133 37.3254L26.0141 37.3376ZM26.0214 37.4609H26.1214L26.1214 37.4598L26.0214 37.4609ZM26.0214 42.4072L26.1147 42.4433L26.1214 42.4259V42.4072H26.0214ZM25.9759 42.5251L25.8825 42.489L25.8814 42.4924L25.9759 42.5251ZM25.8431 47.4332H25.7431L25.7431 47.4362L25.8431 47.4332ZM25.8485 47.6119L25.7485 47.6149L25.7487 47.6179L25.8485 47.6119ZM26.0332 48.4686L26.1332 48.4688L26.1332 48.4502L26.1266 48.4328L26.0332 48.4686ZM26.0212 54.842L26.0223 54.942L26.121 54.9409L26.1212 54.8421L26.0212 54.842ZM25.7487 54.8449L25.7471 54.9449L25.7498 54.9449L25.7487 54.8449ZM25.6101 54.8427L25.6058 54.9426L25.6085 54.9427L25.6101 54.8427ZM23.0243 52.0415L22.9243 52.0415L22.9243 52.0424L23.0243 52.0415ZM23.0242 40.5029L23.1242 40.5029L23.1242 40.4081L23.0294 40.4031L23.0242 40.5029ZM21.9435 40.4461L21.9361 40.5459L21.9382 40.546L21.9435 40.4461ZM21.7824 40.4343L21.773 40.5339L21.775 40.534L21.7824 40.4343ZM51.4655 42.9334L51.4738 42.8334H51.4655V42.9334ZM28.351 42.9794L28.3038 42.8909L28.2969 42.8953L28.351 42.9794ZM28.2984 43.0133L28.2443 42.9292L28.1984 42.9587V43.0133H28.2984ZM28.2984 47.7983H28.1984V47.8522L28.2435 47.8819L28.2984 47.7983ZM28.351 47.8329L28.2959 47.9168L28.3039 47.9211L28.351 47.8329ZM28.4707 47.8737L28.4542 47.9727L28.4625 47.9734L28.4707 47.8737ZM28.5345 47.879L28.5262 47.979H28.5345V47.879ZM51.649 47.8329L51.6963 47.9216L51.7045 47.9161L51.649 47.8329ZM51.7008 47.7983L51.7563 47.8815L51.8008 47.8518V47.7983H51.7008ZM51.7008 43.0133H51.8008V42.9592L51.7555 42.9296L51.7008 43.0133ZM51.649 42.9794L51.7039 42.8954L51.6961 42.8912L51.649 42.9794ZM51.5293 42.9386L51.5458 42.8397L51.5375 42.839L51.5293 42.9386ZM49.9431 24.3536L49.9452 24.2536H49.9431V24.3536ZM50.1013 24.3568L50.1054 24.2569L50.1034 24.2569L50.1013 24.3568ZM53.8805 28.4808L53.9805 28.4808V28.4808H53.8805ZM53.8791 31.7747L53.9448 31.8501L53.979 31.8202L53.9791 31.7748L53.8791 31.7747ZM53.7781 31.8628L53.7124 31.7874L53.7113 31.7884L53.7781 31.8628ZM51.7244 37.094L51.8236 37.1064L51.8249 37.096L51.824 37.0855L51.7244 37.094ZM51.7151 37.1679L51.6159 37.1555L51.6156 37.1578L51.7151 37.1679ZM51.7015 37.4375L51.6015 37.4365V37.4374L51.7015 37.4375ZM51.7008 40.5914L51.6922 40.691L51.8008 40.7005L51.8008 40.5914L51.7008 40.5914ZM51.6186 40.5842L51.6273 40.4846L51.6244 40.4844L51.6186 40.5842ZM28.5345 40.5798V40.4798L28.5326 40.4798L28.5345 40.5798ZM28.4355 40.5817L28.4336 40.4816L28.4298 40.4818L28.4355 40.5817ZM28.3369 40.5872L28.3364 40.6874L28.3426 40.6871L28.3369 40.5872ZM28.2977 40.587L28.1977 40.587L28.1976 40.6866L28.2972 40.687L28.2977 40.587ZM28.2985 37.4392L28.3986 37.4392L28.3984 37.4356L28.2985 37.4392ZM28.2917 37.2478L28.3918 37.2443L28.3913 37.2391L28.2917 37.2478ZM28.2751 37.0589L28.1757 37.0481L28.1746 37.0578L28.1755 37.0676L28.2751 37.0589ZM28.2986 36.5498H28.3987L28.3986 36.5479L28.2986 36.5498ZM28.2939 36.3014L28.3939 36.2995L28.3938 36.2976L28.2939 36.3014ZM26.8576 32.5255L26.9347 32.4618L26.9334 32.4603L26.8576 32.5255ZM26.7453 32.3952L26.6453 32.3952L26.6453 32.4324L26.6696 32.4605L26.7453 32.3952ZM26.7458 28.4808L26.6458 28.4789L26.6458 28.4807L26.7458 28.4808ZM26.749 28.3146L26.649 28.3108L26.649 28.3127L26.749 28.3146ZM33.9136 34.532L33.979 34.4563L33.9045 34.3921L33.8391 34.4654L33.9136 34.532ZM33.1096 35.4319L33.035 35.4984L33.1095 35.582L33.1842 35.4985L33.1096 35.4319ZM34.9376 35.4158L35.0122 35.4824L35.0799 35.4066L35.0029 35.3401L34.9376 35.4158ZM34.016 36.448L33.9414 36.3814L33.8819 36.4479L33.9414 36.5146L34.016 36.448ZM34.9376 37.4803L35.0029 37.556L35.0799 37.4896L35.0122 37.4137L34.9376 37.4803ZM33.9136 38.3641L33.839 38.4307L33.9045 38.5041L33.979 38.4398L33.9136 38.3641ZM33.1096 37.4633L33.1842 37.3967L33.1095 37.3131L33.0349 37.3968L33.1096 37.4633ZM32.3069 38.3641L32.2416 38.4398L32.3161 38.5041L32.3816 38.4306L32.3069 38.3641ZM31.283 37.4803L31.2083 37.4137L31.1407 37.4896L31.2176 37.556L31.283 37.4803ZM32.2032 36.448L32.2778 36.5145L32.3371 36.4479L32.2778 36.3814L32.2032 36.448ZM31.283 35.4158L31.2176 35.3401L31.1407 35.4065L31.2083 35.4824L31.283 35.4158ZM32.3069 34.532L32.3815 34.4654L32.316 34.392L32.2416 34.4563L32.3069 34.532ZM46.8897 35.4319L46.8151 35.4985L46.8897 35.582L46.9643 35.4985L46.8897 35.4319ZM47.6931 34.532L47.7584 34.4563L47.684 34.3921L47.6185 34.4654L47.6931 34.532ZM46.0864 34.532L46.161 34.4654L46.0955 34.3921L46.021 34.4563L46.0864 34.532ZM45.0624 35.4158L44.9971 35.3401L44.9201 35.4065L44.9878 35.4824L45.0624 35.4158ZM45.9833 36.448L46.0579 36.5145L46.1173 36.4479L46.0579 36.3814L45.9833 36.448ZM45.0624 37.4803L44.9878 37.4137L44.9201 37.4896L44.9971 37.556L45.0624 37.4803ZM46.0864 38.3641L46.021 38.4398L46.0955 38.5041L46.161 38.4307L46.0864 38.3641ZM46.8897 37.4633L46.9643 37.3968L46.8897 37.3131L46.815 37.3968L46.8897 37.4633ZM47.6931 38.3641L47.6185 38.4307L47.684 38.5041L47.7584 38.4398L47.6931 38.3641ZM48.717 37.4803L48.7824 37.556L48.8593 37.4896L48.7917 37.4137L48.717 37.4803ZM47.7961 36.448L47.7215 36.3814L47.6621 36.4479L47.7215 36.5145L47.7961 36.448ZM48.717 35.4158L48.7917 35.4824L48.8593 35.4066L48.7824 35.3401L48.717 35.4158ZM33.9136 27.8964L33.979 27.8207L33.9046 27.7564L33.8391 27.8297L33.9136 27.8964ZM33.1096 28.7961L33.035 28.8627L33.1095 28.9463L33.1841 28.8628L33.1096 28.7961ZM34.9376 28.7802L35.0122 28.8468L35.0799 28.7709L35.0029 28.7045L34.9376 28.7802ZM34.016 29.8122L33.9414 29.7456L33.8819 29.8122L33.9414 29.8788L34.016 29.8122ZM34.9376 30.8447L35.0029 30.9204L35.0799 30.8539L35.0122 30.7781L34.9376 30.8447ZM33.9136 31.7285L33.839 31.7951L33.9045 31.8684L33.979 31.8042L33.9136 31.7285ZM33.1096 30.8283L33.1842 30.7617L33.1095 30.6781L33.0349 30.7617L33.1096 30.8283ZM32.3069 31.7285L32.2416 31.8042L32.3161 31.8685L32.3815 31.795L32.3069 31.7285ZM31.283 30.8447L31.2083 30.7781L31.1407 30.854L31.2176 30.9204L31.283 30.8447ZM32.2032 29.8122L32.2778 29.8788L32.3371 29.8122L32.2778 29.7457L32.2032 29.8122ZM31.283 28.7802L31.2176 28.7045L31.1407 28.7709L31.2083 28.8467L31.283 28.7802ZM32.3069 27.8964L32.3815 27.8298L32.316 27.7564L32.2416 27.8207L32.3069 27.8964ZM46.8897 28.7961L46.8151 28.8627L46.8897 28.9463L46.9643 28.8627L46.8897 28.7961ZM47.6931 27.8964L47.7584 27.8207L47.684 27.7564L47.6185 27.8298L47.6931 27.8964ZM46.0864 27.8964L46.161 27.8298L46.0955 27.7564L46.021 27.8207L46.0864 27.8964ZM45.0624 28.7802L44.9971 28.7045L44.9201 28.7709L44.9878 28.8468L45.0624 28.7802ZM45.9833 29.8122L46.0579 29.8788L46.1173 29.8122L46.0579 29.7456L45.9833 29.8122ZM45.0624 30.8447L44.9878 30.7781L44.9202 30.8539L44.9971 30.9204L45.0624 30.8447ZM46.0864 31.7285L46.021 31.8042L46.0955 31.8684L46.161 31.7951L46.0864 31.7285ZM46.8897 30.8283L46.9643 30.7617L46.8897 30.6781L46.8151 30.7617L46.8897 30.8283ZM47.6931 31.7285L47.6185 31.7951L47.684 31.8684L47.7584 31.8042L47.6931 31.7285ZM48.717 30.8447L48.7824 30.9204L48.8593 30.8539L48.7917 30.7781L48.717 30.8447ZM47.7961 29.8122L47.7215 29.7456L47.6621 29.8122L47.7215 29.8788L47.7961 29.8122ZM48.717 28.7802L48.7917 28.8468L48.8593 28.7709L48.7824 28.7045L48.717 28.7802ZM49.9431 22.1C53.2578 22.1 55.9579 24.8525 56.055 28.2892L56.2549 28.2836C56.155 24.7467 53.374 21.9 49.9431 21.9V22.1ZM30.6832 22.1H49.9431V21.9H30.6832V22.1ZM30.498 22.1029L30.6847 22.1L30.6817 21.9L30.495 21.9029L30.498 22.1029ZM30.3158 22.1113L30.5011 22.1028L30.4919 21.903L30.3065 21.9115L30.3158 22.1113ZM24.5686 28.4808C24.5686 25.0838 27.1117 22.3085 30.3173 22.1112L30.305 21.9116C26.9874 22.1157 24.3686 24.9848 24.3686 28.4808H24.5686ZM24.5681 30.755L24.5686 28.4808L24.3686 28.4807L24.3681 30.755L24.5681 30.755ZM24.2086 30.7605L24.4315 30.8481L24.5046 30.6619L24.2817 30.5744L24.2086 30.7605ZM23.9612 30.6755L24.2126 30.762L24.2776 30.5729L24.0263 30.4864L23.9612 30.6755ZM22.1493 30.3945C22.7724 30.3945 23.3824 30.4906 23.9633 30.6762L24.0242 30.4857C23.4235 30.2938 22.793 30.1945 22.1493 30.1945V30.3945ZM16.1 36.5498C16.1 33.1481 18.81 30.3945 22.1493 30.3945V30.1945C18.6964 30.1945 15.9 33.0409 15.9 36.5498H16.1ZM16.103 36.7461L16.1 36.5483L15.9 36.5514L15.903 36.7491L16.103 36.7461ZM16.112 36.9394L16.1029 36.743L15.9031 36.7522L15.9122 36.9486L16.112 36.9394ZM20.7297 42.5347C18.1606 41.9069 16.2778 39.6346 16.1119 36.9378L15.9123 36.9501C16.0834 39.7324 18.0262 42.08 20.6822 42.729L20.7297 42.5347ZM20.7685 42.5435L20.728 42.5343L20.6838 42.7294L20.7243 42.7385L20.7685 42.5435ZM20.847 52.013L20.8464 42.641L20.6464 42.641L20.647 52.013L20.847 52.013ZM20.8518 52.2399L20.847 52.0109L20.647 52.0152L20.6518 52.2441L20.8518 52.2399ZM20.8619 52.4128L20.8517 52.2362L20.652 52.2478L20.6623 52.4244L20.8619 52.4128ZM25.7707 57.0982C23.1915 57.1252 21.0588 55.0575 20.8618 52.4111L20.6624 52.426C20.8666 55.1696 23.0802 57.3263 25.7728 57.2982L25.7707 57.0982ZM27.1119 57.084L25.7707 57.0982L25.7728 57.2982L27.114 57.284L27.1119 57.084ZM27.2132 57.1984L27.2129 57.1825L27.0129 57.1856L27.0132 57.2015L27.2132 57.1984ZM53.7915 57.1H27.1132V57.3H53.7915V57.1ZM53.6913 57.1977L53.6916 57.2043L53.8914 57.1957L53.8912 57.1892L53.6913 57.1977ZM54.2293 57.0982L53.7923 57.0935L53.7902 57.2935L54.2271 57.2982L54.2293 57.0982ZM54.3988 57.097L54.2275 57.0982L54.229 57.2982L54.4002 57.297L54.3988 57.097ZM59.1528 52.0638C59.1265 54.815 57.0115 57.0323 54.397 57.097L54.402 57.297C57.1313 57.2294 59.3255 54.9174 59.3528 52.0657L59.1528 52.0638ZM59.1528 42.641L59.1528 52.0647H59.3528L59.3528 42.641H59.1528ZM59.2724 42.5342L59.2311 42.5434L59.2745 42.7386L59.3158 42.7294L59.2724 42.5342ZM63.9 36.5498C63.9 39.4145 61.9617 41.877 59.2703 42.5347L59.3178 42.729C62.1003 42.0491 64.1 39.505 64.1 36.5498H63.9ZM57.8507 30.3945C61.19 30.3945 63.9 33.1481 63.9 36.5498H64.1C64.1 33.0409 61.3036 30.1945 57.8507 30.1945V30.3945ZM57.5681 30.4011L57.853 30.3945L57.8484 30.1946L57.5634 30.2012L57.5681 30.4011ZM57.2898 30.4207L57.5727 30.4009L57.5588 30.2014L57.2759 30.2211L57.2898 30.4207ZM56.2055 30.6251C56.5593 30.5235 56.9226 30.4549 57.2921 30.4205L57.2736 30.2213C56.8917 30.2569 56.5161 30.3278 56.1504 30.4328L56.2055 30.6251ZM56.1836 30.6313L56.2053 30.6251L56.1506 30.4327L56.129 30.4389L56.1836 30.6313ZM56.0577 28.4807L56.0563 30.535L56.2563 30.5352L56.2577 28.4809L56.0577 28.4807ZM56.055 28.2878L56.0577 28.4822L56.2577 28.4794L56.255 28.285L56.055 28.2878ZM51.6913 50.1207L51.6091 50.1286L51.6281 50.3277L51.7104 50.3198L51.6913 50.1207ZM51.8008 54.8463V50.2202H51.6008V54.8463H51.8008ZM28.2984 54.9463H51.7008V54.7463H28.2984V54.9463ZM28.1984 50.2202V54.8463H28.3984V50.2202H28.1984ZM28.3909 50.1286L28.3079 50.1207L28.289 50.3198L28.372 50.3277L28.3909 50.1286ZM28.5345 50.1326C28.4852 50.1326 28.4361 50.1311 28.3872 50.1283L28.3756 50.3279C28.4284 50.331 28.4813 50.3326 28.5345 50.3326V50.1326ZM51.4655 50.1326H28.5345V50.3326H51.4655V50.1326ZM51.6157 50.1281L51.4626 50.1326L51.4684 50.3325L51.6215 50.3281L51.6157 50.1281ZM54.0786 36.5498C54.0786 34.4504 55.7677 32.7481 57.8507 32.7481V32.5481C55.6558 32.5481 53.8786 34.3415 53.8786 36.5498H54.0786ZM54.0885 36.8311C54.0818 36.7331 54.0786 36.6416 54.0786 36.5498H53.8786C53.8786 36.6464 53.8819 36.7425 53.8889 36.8447L54.0885 36.8311ZM54.1013 36.9854L54.0884 36.8296L53.889 36.8462L53.902 37.002L54.1013 36.9854ZM54.0928 37.2902L54.1016 36.9967L53.9017 36.9907L53.8929 37.2842L54.0928 37.2902ZM54.0819 37.3849L54.0921 37.2991L53.8936 37.2753L53.8833 37.3612L54.0819 37.3849ZM54.0785 37.4637L54.0825 37.3777L53.8827 37.3683L53.8787 37.4544L54.0785 37.4637ZM54.0668 42.344L54.0786 37.4593L53.8786 37.4588L53.8668 42.3435L54.0668 42.344ZM54.2513 43.1945C54.2328 42.8881 54.1681 42.5898 54.0602 42.308L53.8734 42.3795C53.974 42.6422 54.0343 42.9204 54.0517 43.2066L54.2513 43.1945ZM54.2568 43.3761L54.2515 43.1975L54.0515 43.2035L54.0569 43.3821L54.2568 43.3761ZM54.2569 47.4332V43.3791H54.0569V47.4332H54.2569ZM54.1186 48.32C54.2078 48.0626 54.2569 47.7504 54.2569 47.4332H54.0569C54.0569 47.7313 54.0105 48.021 53.9296 48.2545L54.1186 48.32ZM54.0718 48.4412L54.1174 48.3233L53.9308 48.2512L53.8853 48.3691L54.0718 48.4412ZM54.078 54.842L54.0786 48.4051L53.8786 48.4051L53.878 54.8419L54.078 54.842ZM54.2523 54.7449L53.9791 54.742L53.977 54.942L54.2501 54.9449L54.2523 54.7449ZM56.8709 52.1831C56.787 53.6303 55.6349 54.7592 54.2523 54.7449L54.2502 54.9449C55.7482 54.9604 56.981 53.7397 57.0706 52.1947L56.8709 52.1831ZM56.8757 52.0398L56.8708 52.1855L57.0707 52.1923L57.0756 52.0465L56.8757 52.0398ZM56.8758 40.5029L56.8756 52.0431L57.0756 52.0431L57.0758 40.5029L56.8758 40.5029ZM58.0513 40.3463L56.9705 40.4031L56.981 40.6028L58.0618 40.546L58.0513 40.3463ZM61.6228 36.5498C61.6228 38.5718 60.0499 40.2412 58.0513 40.3463L58.0618 40.546C60.1681 40.4353 61.8228 38.6767 61.8228 36.5498H61.6228ZM57.8507 32.7481C59.9336 32.7481 61.6228 34.4504 61.6228 36.5498H61.8228C61.8228 34.3415 60.0456 32.5481 57.8507 32.5481V32.7481ZM22.1493 32.5481C19.9544 32.5481 18.1772 34.3415 18.1772 36.5498H18.3772C18.3772 34.4504 20.0664 32.7481 22.1493 32.7481V32.5481ZM26.1214 36.5498C26.1214 34.3415 24.3442 32.5481 22.1493 32.5481V32.7481C24.2323 32.7481 25.9214 34.4504 25.9214 36.5498H26.1214ZM26.0987 36.9812C26.1138 36.8385 26.1214 36.6946 26.1214 36.5498H25.9214C25.9214 36.6876 25.9142 36.8245 25.8998 36.9601L26.0987 36.9812ZM26.105 37.2622L26.0992 36.9686L25.8993 36.9726L25.9051 37.2662L26.105 37.2622ZM26.1133 37.3254L26.1043 37.252L25.9058 37.2764L25.9148 37.3497L26.1133 37.3254ZM26.1214 37.4598C26.121 37.4172 26.1185 37.3752 26.1135 37.3272L25.9146 37.348C25.919 37.3903 25.9211 37.4261 25.9214 37.4619L26.1214 37.4598ZM26.1214 42.4072L26.1214 37.4609H25.9214L25.9214 42.4072H26.1214ZM26.0692 42.5612L26.1147 42.4433L25.9282 42.3712L25.8826 42.489L26.0692 42.5612ZM25.9431 43.3791C25.9431 43.081 25.9895 42.7913 26.0704 42.5578L25.8814 42.4924C25.7922 42.7498 25.7431 43.062 25.7431 43.3791H25.9431ZM25.9431 47.4332V43.3791H25.7431V47.4332H25.9431ZM25.9485 47.6088L25.9431 47.4302L25.7431 47.4362L25.7485 47.6149L25.9485 47.6088ZM26.1266 48.4328C26.026 48.1702 25.9656 47.8919 25.9483 47.6058L25.7487 47.6179C25.7672 47.9242 25.8319 48.2226 25.9398 48.5043L26.1266 48.4328ZM26.1212 54.8421L26.1332 48.4688L25.9332 48.4684L25.9212 54.8418L26.1212 54.8421ZM25.7498 54.9449L26.0223 54.942L26.0201 54.742L25.7476 54.7449L25.7498 54.9449ZM25.6085 54.9427L25.7471 54.9449L25.7503 54.7449L25.6117 54.7427L25.6085 54.9427ZM22.9243 52.0424C22.9393 53.6093 24.1255 54.8792 25.6058 54.9426L25.6144 54.7428C24.2479 54.6842 23.1384 53.5087 23.1243 52.0405L22.9243 52.0424ZM22.9242 40.5029L22.9243 52.0415L23.1243 52.0414L23.1242 40.5029L22.9242 40.5029ZM21.9382 40.546L23.019 40.6028L23.0294 40.4031L21.9487 40.3463L21.9382 40.546ZM21.775 40.534L21.9361 40.5459L21.9508 40.3464L21.7897 40.3346L21.775 40.534ZM18.1772 36.5498C18.1772 38.6207 19.7459 40.3425 21.773 40.5339L21.7918 40.3348C19.8684 40.1531 18.3772 38.5185 18.3772 36.5498H18.1772ZM28.5345 43.0334H51.4655V42.8334H28.5345V43.0334ZM28.3981 43.0677C28.4402 43.0452 28.4865 43.0334 28.5345 43.0334V42.8334C28.4531 42.8334 28.3745 42.8536 28.3039 42.8912L28.3981 43.0677ZM28.3525 43.0974L28.4052 43.0635L28.2969 42.8953L28.2443 42.9292L28.3525 43.0974ZM28.3984 47.7983V43.0133H28.1984V47.7983H28.3984ZM28.406 47.7494L28.3534 47.7148L28.2435 47.8819L28.2961 47.9165L28.406 47.7494ZM28.4871 47.7751C28.4562 47.7699 28.4262 47.7597 28.3981 47.7447L28.3039 47.9211C28.3509 47.9462 28.4015 47.9636 28.4542 47.9724L28.4871 47.7751ZM28.5427 47.7793L28.4789 47.7741L28.4625 47.9734L28.5263 47.9786L28.5427 47.7793ZM51.4655 47.779H28.5345V47.979H51.4655V47.779ZM51.6019 47.7447C51.5598 47.7671 51.5135 47.779 51.4655 47.779V47.979C51.5469 47.979 51.6255 47.9588 51.6961 47.9211L51.6019 47.7447ZM51.6453 47.7151L51.5935 47.7497L51.7045 47.9161L51.7563 47.8815L51.6453 47.7151ZM51.6008 43.0133V47.7983H51.8008V43.0133H51.6008ZM51.5943 43.0632L51.6462 43.097L51.7555 42.9296L51.7037 42.8957L51.5943 43.0632ZM51.5129 43.0373C51.5438 43.0424 51.5738 43.0527 51.6019 43.0677L51.6961 42.8912C51.6491 42.8662 51.5985 42.8488 51.5458 42.84L51.5129 43.0373ZM51.4573 43.033L51.5211 43.0383L51.5375 42.839L51.4737 42.8337L51.4573 43.033ZM49.9431 24.2536H30.6832V24.4536H49.9431V24.2536ZM50.1034 24.2569L49.9452 24.2536L49.9411 24.4536L50.0992 24.4568L50.1034 24.2569ZM53.9805 28.4808C53.9805 26.2046 52.2613 24.3463 50.1054 24.2569L50.0972 24.4568C52.1383 24.5414 53.7805 26.3041 53.7805 28.4808H53.9805ZM53.9791 31.7748L53.9805 28.4808L53.7805 28.4807L53.7791 31.7747L53.9791 31.7748ZM53.8439 31.9381L53.9448 31.8501L53.8133 31.6994L53.7124 31.7874L53.8439 31.9381ZM51.8014 36.5498C51.8014 34.7586 52.5567 33.0953 53.845 31.9371L53.7113 31.7884C52.3809 32.9844 51.6014 34.7018 51.6014 36.5498H51.8014ZM51.824 37.0855C51.8089 36.9078 51.8014 36.7291 51.8014 36.5498H51.6014C51.6014 36.7348 51.6092 36.9191 51.6247 37.1025L51.824 37.0855ZM51.8144 37.1803L51.8236 37.1064L51.6251 37.0816L51.6159 37.1555L51.8144 37.1803ZM51.8015 37.4384C51.8024 37.3455 51.8069 37.2538 51.8146 37.178L51.6156 37.1578C51.6072 37.2411 51.6025 37.3391 51.6015 37.4365L51.8015 37.4384ZM51.8008 40.5914L51.8015 37.4375L51.6015 37.4374L51.6008 40.5914L51.8008 40.5914ZM51.6099 40.6839L51.6922 40.691L51.7095 40.4918L51.6273 40.4846L51.6099 40.6839ZM51.4655 40.6798C51.5148 40.6798 51.5639 40.6812 51.6128 40.6841L51.6244 40.4844C51.5716 40.4813 51.5187 40.4798 51.4655 40.4798V40.6798ZM28.5345 40.6798H51.4655V40.4798H28.5345V40.6798ZM28.4374 40.6816L28.5364 40.6798L28.5326 40.4798L28.4336 40.4817L28.4374 40.6816ZM28.3426 40.6871L28.4411 40.6815L28.4298 40.4818L28.3313 40.4874L28.3426 40.6871ZM28.2972 40.687L28.3364 40.6872L28.3374 40.4872L28.2981 40.487L28.2972 40.687ZM28.1985 37.4391L28.1977 40.587L28.3977 40.5871L28.3985 37.4392L28.1985 37.4391ZM28.1918 37.2514L28.1985 37.4427L28.3984 37.4356L28.3917 37.2443L28.1918 37.2514ZM28.1755 37.0676L28.1921 37.2566L28.3913 37.2391L28.3747 37.0501L28.1755 37.0676ZM28.1986 36.5498C28.1986 36.7296 28.191 36.9073 28.1757 37.0481L28.3745 37.0697C28.3909 36.9196 28.3986 36.7342 28.3986 36.5498H28.1986ZM28.1939 36.3033L28.1987 36.5518L28.3986 36.5479L28.3939 36.2995L28.1939 36.3033ZM26.7806 32.5893C27.6391 33.6269 28.1408 34.9242 28.1939 36.3052L28.3938 36.2976C28.339 34.8726 27.8212 33.5333 26.9347 32.4618L26.7806 32.5893ZM26.6696 32.4605L26.7819 32.5908L26.9334 32.4603L26.821 32.33L26.6696 32.4605ZM26.6458 28.4807L26.6453 32.3952L26.8453 32.3953L26.8458 28.4808L26.6458 28.4807ZM26.649 28.3127L26.6459 28.4789L26.8458 28.4826L26.849 28.3165L26.649 28.3127ZM30.6832 24.2536C28.5066 24.2536 26.7342 26.0566 26.649 28.3108L26.8489 28.3184C26.9303 26.1629 28.6226 24.4536 30.6832 24.4536V24.2536ZM33.8391 34.4654L33.035 35.3652L33.1842 35.4985L33.9882 34.5986L33.8391 34.4654ZM35.0029 35.3401L33.979 34.4563L33.8483 34.6077L34.8722 35.4915L35.0029 35.3401ZM34.0906 36.5146L35.0122 35.4824L34.863 35.3492L33.9414 36.3814L34.0906 36.5146ZM35.0122 37.4137L34.0906 36.3814L33.9414 36.5146L34.863 37.5469L35.0122 37.4137ZM33.979 38.4398L35.0029 37.556L34.8722 37.4046L33.8483 38.2884L33.979 38.4398ZM33.035 37.5299L33.839 38.4307L33.9882 38.2975L33.1842 37.3967L33.035 37.5299ZM32.3816 38.4306L33.1842 37.5298L33.0349 37.3968L32.2322 38.2976L32.3816 38.4306ZM31.2176 37.556L32.2416 38.4398L32.3722 38.2884L31.3483 37.4046L31.2176 37.556ZM32.1285 36.3814L31.2083 37.4137L31.3576 37.5468L32.2778 36.5145L32.1285 36.3814ZM31.2083 35.4824L32.1285 36.5145L32.2778 36.3814L31.3576 35.3493L31.2083 35.4824ZM32.2416 34.4563L31.2176 35.3401L31.3483 35.4915L32.3722 34.6077L32.2416 34.4563ZM33.1842 35.3653L32.3815 34.4654L32.2323 34.5986L33.035 35.4984L33.1842 35.3653ZM46.9643 35.4985L47.7677 34.5986L47.6185 34.4654L46.8151 35.3653L46.9643 35.4985ZM46.0118 34.5986L46.8151 35.4985L46.9643 35.3653L46.161 34.4654L46.0118 34.5986ZM45.1278 35.4915L46.1517 34.6077L46.021 34.4563L44.9971 35.3401L45.1278 35.4915ZM46.0579 36.3814L45.1371 35.3493L44.9878 35.4824L45.9086 36.5145L46.0579 36.3814ZM45.1371 37.5469L46.0579 36.5145L45.9086 36.3814L44.9878 37.4137L45.1371 37.5469ZM46.1517 38.2884L45.1278 37.4046L44.9971 37.556L46.021 38.4398L46.1517 38.2884ZM46.815 37.3968L46.0117 38.2976L46.161 38.4307L46.9643 37.5299L46.815 37.3968ZM47.7677 38.2975L46.9643 37.3968L46.815 37.5299L47.6185 38.4307L47.7677 38.2975ZM48.6517 37.4046L47.6278 38.2884L47.7584 38.4398L48.7824 37.556L48.6517 37.4046ZM47.7215 36.5145L48.6424 37.5469L48.7917 37.4137L47.8707 36.3814L47.7215 36.5145ZM48.6424 35.3493L47.7215 36.3814L47.8707 36.5145L48.7917 35.4824L48.6424 35.3493ZM47.6278 34.6077L48.6517 35.4915L48.7824 35.3401L47.7584 34.4563L47.6278 34.6077ZM33.8391 27.8297L33.035 28.7295L33.1841 28.8628L33.9882 27.963L33.8391 27.8297ZM35.0029 28.7045L33.979 27.8207L33.8483 27.9721L34.8722 28.8559L35.0029 28.7045ZM34.0906 29.8788L35.0122 28.8468L34.863 28.7136L33.9414 29.7456L34.0906 29.8788ZM35.0122 30.7781L34.0906 29.7456L33.9414 29.8788L34.863 30.9112L35.0122 30.7781ZM33.979 31.8042L35.0029 30.9204L34.8722 30.769L33.8483 31.6528L33.979 31.8042ZM33.035 30.8949L33.839 31.7951L33.9882 31.6619L33.1842 30.7617L33.035 30.8949ZM32.3815 31.795L33.1842 30.8948L33.0349 30.7617L32.2323 31.6619L32.3815 31.795ZM31.2176 30.9204L32.2416 31.8042L32.3722 31.6528L31.3483 30.769L31.2176 30.9204ZM32.1285 29.7457L31.2083 30.7781L31.3576 30.9112L32.2778 29.8788L32.1285 29.7457ZM31.2083 28.8467L32.1285 29.8788L32.2778 29.7457L31.3576 28.7136L31.2083 28.8467ZM32.2416 27.8207L31.2176 28.7045L31.3483 28.8559L32.3722 27.9721L32.2416 27.8207ZM33.1842 28.7296L32.3815 27.8298L32.2323 27.9629L33.035 28.8627L33.1842 28.7296ZM46.9643 28.8627L47.7677 27.963L47.6185 27.8298L46.8151 28.7295L46.9643 28.8627ZM46.0118 27.963L46.8151 28.8627L46.9643 28.7295L46.161 27.8298L46.0118 27.963ZM45.1278 28.8559L46.1517 27.9721L46.021 27.8207L44.9971 28.7045L45.1278 28.8559ZM46.0579 29.7456L45.137 28.7136L44.9878 28.8468L45.9086 29.8788L46.0579 29.7456ZM45.1371 30.9112L46.0579 29.8788L45.9086 29.7457L44.9878 30.7781L45.1371 30.9112ZM46.1517 31.6528L45.1278 30.769L44.9971 30.9204L46.021 31.8042L46.1517 31.6528ZM46.8151 30.7617L46.0118 31.6619L46.161 31.7951L46.9643 30.8949L46.8151 30.7617ZM47.7677 31.6619L46.9643 30.7617L46.8151 30.8949L47.6185 31.7951L47.7677 31.6619ZM48.6517 30.769L47.6278 31.6528L47.7584 31.8042L48.7824 30.9204L48.6517 30.769ZM47.7215 29.8788L48.6424 30.9112L48.7917 30.7781L47.8707 29.7456L47.7215 29.8788ZM48.6424 28.7136L47.7215 29.7456L47.8707 29.8788L48.7917 28.8468L48.6424 28.7136ZM47.6278 27.9721L48.6517 28.8559L48.7824 28.7045L47.7584 27.8207L47.6278 27.9721Z" fill="white"/>
</svg>
