<svg width="80" height="80" viewBox="0 0 80 80" fill="none" xmlns="http://www.w3.org/2000/svg">
<path fill-rule="evenodd" clip-rule="evenodd" d="M42.5009 20.5V18H16V20.5L17.6917 20.4976L17.6943 56.3424L22.2432 56.3443L22.319 56.6253C23.3146 59.9512 26.4604 62.3077 30.0976 62.3077L30.699 62.2861L31.3261 62.217C34.4276 61.7549 36.9948 59.5701 37.8762 56.6253L37.9461 56.3443H44.6042L44.678 56.6253C45.6736 59.9512 48.8194 62.3077 52.4567 62.3077L53.058 62.2861L53.6851 62.217C56.7866 61.7549 59.3538 59.5701 60.2353 56.6253L60.3071 56.3443L64 56.3225V35.6002L57.4547 35.5996L58.0223 29H58.8402V26.381L47.793 26.4064V29H48.7337L49.294 35.5996H40.6457V20.4976L42.5009 20.5ZM24.6938 54.5219C24.6938 51.5127 27.1644 49.0719 30.2138 49.0719C33.2631 49.0719 35.7338 51.5127 35.7338 54.5219C35.7338 57.5311 33.2631 59.9719 30.2138 59.9719C27.1644 59.9719 24.6938 57.5311 24.6938 54.5219ZM52.5367 49.2209C49.5471 49.2209 47.1269 51.5795 47.1269 54.4846C47.1269 57.3896 49.5471 59.7482 52.5367 59.7482C55.5264 59.7482 57.9465 57.3896 57.9465 54.4846C57.9465 51.5795 55.5264 49.2209 52.5367 49.2209ZM20.5 38.2H61.5V53.1992H60.4599L60.4258 52.96C59.7272 49.2549 56.3979 46.4955 52.4567 46.4955L51.8703 46.516C48.189 46.7738 45.1512 49.4402 44.4875 52.96L44.4478 53.1992H38.1026L38.0668 52.96C37.3682 49.2549 34.0389 46.4955 30.0976 46.4955L29.5113 46.516C25.83 46.7738 22.7922 49.4402 22.1285 52.96L22.0904 53.1992H20.5V38.2ZM55.5 29H51.3281L51.75 35.5996H55L55.5 29ZM20.5 20.5H38V35.5996H20.5V20.5Z" fill="white"/>
</svg>
